Karla-ExtraBold.ufo
<glyph name="exclam" format="2">
  <advance width="618.55"/>
  <unicode hex="0021"/>
  <outline>
    <contour>
      <point x="177" y="528" type="line"/>
      <point x="459" y="528" type="line"/>
      <point x="495" y="1404" type="line"/>
      <point x="145" y="1404" type="line"/>
    </contour>
    <contour>
      <point x="321" y="-18" type="curve" smooth="yes"/>
      <point x="446" y="-18"/>
      <point x="539" y="67"/>
      <point x="539" y="188" type="curve" smooth="yes"/>
      <point x="539" y="304"/>
      <point x="446" y="393"/>
      <point x="321" y="393" type="curve" smooth="yes"/>
      <point x="194" y="393"/>
      <point x="107" y="304"/>
      <point x="107" y="188" type="curve" smooth="yes"/>
      <point x="107" y="67"/>
      <point x="194" y="-18"/>
    </contour>
  </outline>
</glyph>
<glyph name="numbersign" format="2">
  <advance width="1466.25"/>
  <unicode hex="0023"/>
  <outline>
    <contour>
      <point x="264" y="70" type="line"/>
      <point x="566" y="70" type="line"/>
      <point x="591" y="315" type="line"/>
      <point x="826" y="315" type="line"/>
      <point x="800" y="70" type="line"/>
      <point x="1102" y="70" type="line"/>
      <point x="1127" y="315" type="line"/>
      <point x="1299" y="315" type="line"/>
      <point x="1319" y="520" type="line"/>
      <point x="1148" y="520" type="line"/>
      <point x="1175" y="792" type="line"/>
      <point x="1347" y="792" type="line"/>
      <point x="1367" y="996" type="line"/>
      <point x="1200" y="996" type="line"/>
      <point x="1224" y="1241" type="line"/>
      <point x="924" y="1241" type="line"/>
      <point x="898" y="996" type="line"/>
      <point x="664" y="996" type="line"/>
      <point x="692" y="1241" type="line"/>
      <point x="390" y="1241" type="line"/>
      <point x="362" y="996" type="line"/>
      <point x="193" y="996" type="line"/>
      <point x="170" y="792" type="line"/>
      <point x="342" y="792" type="line"/>
      <point x="312" y="520" type="line"/>
      <point x="141" y="520" type="line"/>
      <point x="122" y="315" type="line"/>
      <point x="290" y="315" type="line"/>
    </contour>
    <contour>
      <point x="614" y="520" type="line"/>
      <point x="644" y="792" type="line"/>
      <point x="878" y="792" type="line"/>
      <point x="848" y="520" type="line"/>
    </contour>
  </outline>
</glyph>
<glyph name="dollar" format="2">
  <advance width="1500.85"/>
  <unicode hex="0024"/>
  <outline>
    <contour>
      <point x="782" y="-32" type="curve" smooth="yes"/>
      <point x="1200" y="-32"/>
      <point x="1378" y="162"/>
      <point x="1378" y="363" type="curve" smooth="yes"/>
      <point x="1378" y="531"/>
      <point x="1293" y="633"/>
      <point x="1074" y="713" type="curve" smooth="yes"/>
      <point x="755" y="831" type="line"/>
      <point x="755" y="559" type="line"/>
      <point x="912" y="495" type="line" smooth="yes"/>
      <point x="980" y="465"/>
      <point x="1018" y="422"/>
      <point x="1018" y="371" type="curve" smooth="yes"/>
      <point x="1018" y="304"/>
      <point x="961" y="259"/>
      <point x="800" y="259" type="curve" smooth="yes"/>
      <point x="551" y="259"/>
      <point x="438" y="305"/>
      <point x="438" y="438" type="curve"/>
      <point x="122" y="438" type="line"/>
      <point x="122" y="100"/>
      <point x="434" y="-32"/>
    </contour>
    <contour>
      <point x="644" y="-223" type="line"/>
      <point x="860" y="-223" type="line"/>
      <point x="860" y="1527" type="line"/>
      <point x="644" y="1527" type="line"/>
    </contour>
    <contour>
      <point x="698" y="551" type="line"/>
      <point x="698" y="829" type="line"/>
      <point x="584" y="881" type="line" smooth="yes"/>
      <point x="521" y="907"/>
      <point x="490" y="936"/>
      <point x="490" y="983" type="curve" smooth="yes"/>
      <point x="490" y="1054"/>
      <point x="569" y="1101"/>
      <point x="733" y="1101" type="curve" smooth="yes"/>
      <point x="901" y="1101"/>
      <point x="994" y="1015"/>
      <point x="1014" y="927" type="curve"/>
      <point x="1330" y="927" type="line"/>
      <point x="1282" y="1205"/>
      <point x="1107" y="1372"/>
      <point x="739" y="1372" type="curve" smooth="yes"/>
      <point x="350" y="1372"/>
      <point x="141" y="1220"/>
      <point x="141" y="993" type="curve" smooth="yes"/>
      <point x="141" y="799"/>
      <point x="278" y="698"/>
      <point x="506" y="618" type="curve" smooth="yes"/>
    </contour>
  </outline>
</glyph>
<glyph name="percent" format="2">
  <advance width="1610.9"/>
  <unicode hex="0025"/>
  <outline>
    <contour>
      <point x="202" y="0" type="line"/>
      <point x="523" y="0" type="line"/>
      <point x="1435" y="1342" type="line"/>
      <point x="1117" y="1342" type="line"/>
    </contour>
    <contour>
      <point x="1228" y="-24" type="curve" smooth="yes"/>
      <point x="1386" y="-24"/>
      <point x="1523" y="78"/>
      <point x="1523" y="297" type="curve" smooth="yes"/>
      <point x="1523" y="518"/>
      <point x="1386" y="620"/>
      <point x="1228" y="620" type="curve" smooth="yes"/>
      <point x="1071" y="620"/>
      <point x="937" y="518"/>
      <point x="937" y="297" type="curve" smooth="yes"/>
      <point x="937" y="78"/>
      <point x="1071" y="-24"/>
    </contour>
    <contour>
      <point x="1228" y="174" type="curve" smooth="yes"/>
      <point x="1191" y="174"/>
      <point x="1167" y="199"/>
      <point x="1167" y="297" type="curve" smooth="yes"/>
      <point x="1167" y="394"/>
      <point x="1191" y="423"/>
      <point x="1228" y="423" type="curve" smooth="yes"/>
      <point x="1265" y="423"/>
      <point x="1290" y="394"/>
      <point x="1290" y="297" type="curve" smooth="yes"/>
      <point x="1290" y="199"/>
      <point x="1265" y="174"/>
    </contour>
    <contour>
      <point x="413" y="731" type="curve" smooth="yes"/>
      <point x="574" y="731"/>
      <point x="708" y="833"/>
      <point x="708" y="1054" type="curve" smooth="yes"/>
      <point x="708" y="1270"/>
      <point x="574" y="1372"/>
      <point x="413" y="1372" type="curve" smooth="yes"/>
      <point x="256" y="1372"/>
      <point x="122" y="1270"/>
      <point x="122" y="1054" type="curve" smooth="yes"/>
      <point x="122" y="833"/>
      <point x="256" y="731"/>
    </contour>
    <contour>
      <point x="413" y="927" type="curve" smooth="yes"/>
      <point x="376" y="927"/>
      <point x="353" y="954"/>
      <point x="353" y="1054" type="curve" smooth="yes"/>
      <point x="353" y="1149"/>
      <point x="376" y="1174"/>
      <point x="413" y="1174" type="curve" smooth="yes"/>
      <point x="452" y="1174"/>
      <point x="477" y="1149"/>
      <point x="477" y="1054" type="curve" smooth="yes"/>
      <point x="477" y="954"/>
      <point x="452" y="927"/>
    </contour>
  </outline>
</glyph>
<glyph name="ampersand" format="2">
  <advance width="2036.05"/>
  <unicode hex="0026"/>
  <outline>
    <contour>
      <point x="1560" y="-32" type="curve" smooth="yes"/>
      <point x="1796" y="-32"/>
      <point x="1911" y="133"/>
      <point x="1912" y="381" type="curve"/>
      <point x="1629" y="381" type="line"/>
      <point x="1629" y="291"/>
      <point x="1584" y="249"/>
      <point x="1524" y="249" type="curve" smooth="yes"/>
      <point x="1462" y="249"/>
      <point x="1424" y="273"/>
      <point x="1382" y="311" type="curve" smooth="yes"/>
      <point x="808" y="844" type="line" smooth="yes"/>
      <point x="761" y="890"/>
      <point x="733" y="929"/>
      <point x="733" y="981" type="curve" smooth="yes"/>
      <point x="733" y="1042"/>
      <point x="782" y="1087"/>
      <point x="869" y="1087" type="curve" smooth="yes"/>
      <point x="948" y="1087"/>
      <point x="1003" y="1043"/>
      <point x="1003" y="980" type="curve" smooth="yes"/>
      <point x="1003" y="874"/>
      <point x="896" y="819"/>
      <point x="762" y="778" type="curve"/>
      <point x="926" y="626" type="line"/>
      <point x="1194" y="698"/>
      <point x="1356" y="826"/>
      <point x="1356" y="1031" type="curve" smooth="yes"/>
      <point x="1356" y="1212"/>
      <point x="1187" y="1366"/>
      <point x="869" y="1366" type="curve" smooth="yes"/>
      <point x="547" y="1366"/>
      <point x="378" y="1209"/>
      <point x="378" y="1027" type="curve" smooth="yes"/>
      <point x="378" y="919"/>
      <point x="440" y="817"/>
      <point x="512" y="750" type="curve" smooth="yes"/>
      <point x="1123" y="180" type="line" smooth="yes"/>
      <point x="1274" y="38"/>
      <point x="1401" y="-32"/>
    </contour>
    <contour>
      <point x="772" y="-32" type="curve" smooth="yes"/>
      <point x="1138" y="-32"/>
      <point x="1447" y="228"/>
      <point x="1608" y="675" type="curve"/>
      <point x="1399" y="793" type="line"/>
      <point x="1251" y="472"/>
      <point x="1041" y="260"/>
      <point x="775" y="260" type="curve" smooth="yes"/>
      <point x="634" y="260"/>
      <point x="545" y="327"/>
      <point x="545" y="416" type="curve" smooth="yes"/>
      <point x="545" y="494"/>
      <point x="608" y="554"/>
      <point x="780" y="566" type="curve"/>
      <point x="664" y="731" type="line"/>
      <point x="377" y="710"/>
      <point x="190" y="601"/>
      <point x="190" y="393" type="curve" smooth="yes"/>
      <point x="190" y="148"/>
      <point x="462" y="-32"/>
    </contour>
  </outline>
</glyph>
<glyph name="quotesingle" format="2">
  <advance width="451.4"/>
  <unicode hex="0027"/>
  <outline>
    <contour>
      <point x="68" y="1354" type="line"/>
      <point x="109" y="840" type="line"/>
      <point x="342" y="840" type="line"/>
      <point x="384" y="1354" type="line"/>
    </contour>
  </outline>
</glyph>
<glyph name="parenleft" format="2">
  <advance width="891.4"/>
  <unicode hex="0028"/>
  <outline>
    <contour>
      <point x="587" y="1565" type="line"/>
      <point x="274" y="1296"/>
      <point x="146" y="1004"/>
      <point x="146" y="659" type="curve" smooth="yes"/>
      <point x="146" y="316"/>
      <point x="274" y="26"/>
      <point x="587" y="-244" type="curve"/>
      <point x="818" y="-68" type="line"/>
      <point x="586" y="178"/>
      <point x="474" y="385"/>
      <point x="474" y="659" type="curve" smooth="yes"/>
      <point x="474" y="937"/>
      <point x="586" y="1144"/>
      <point x="818" y="1392" type="curve"/>
    </contour>
  </outline>
</glyph>
<glyph name="parenright" format="2">
  <advance width="891.4"/>
  <unicode hex="0029"/>
  <outline>
    <contour>
      <point x="305" y="-244" type="line"/>
      <point x="617" y="26"/>
      <point x="746" y="316"/>
      <point x="746" y="659" type="curve" smooth="yes"/>
      <point x="746" y="1004"/>
      <point x="617" y="1296"/>
      <point x="305" y="1565" type="curve"/>
      <point x="72" y="1392" type="line"/>
      <point x="305" y="1144"/>
      <point x="418" y="937"/>
      <point x="418" y="659" type="curve" smooth="yes"/>
      <point x="418" y="385"/>
      <point x="305" y="178"/>
      <point x="72" y="-68" type="curve"/>
    </contour>
  </outline>
</glyph>
<glyph name="asterisk" format="2">
  <advance width="810.65"/>
  <unicode hex="002A"/>
  <outline>
    <contour>
      <point x="133" y="936" type="line"/>
      <point x="272" y="809" type="line"/>
      <point x="416" y="1005" type="line"/>
      <point x="553" y="809" type="line"/>
      <point x="701" y="936" type="line"/>
      <point x="537" y="1085" type="line"/>
      <point x="741" y="1153" type="line"/>
      <point x="668" y="1331" type="line"/>
      <point x="485" y="1231" type="line"/>
      <point x="515" y="1450" type="line"/>
      <point x="313" y="1450" type="line"/>
      <point x="343" y="1231" type="line"/>
      <point x="160" y="1325" type="line"/>
      <point x="87" y="1149" type="line"/>
      <point x="297" y="1083" type="line"/>
    </contour>
  </outline>
</glyph>
<glyph name="plus" format="2">
  <advance width="1121.65"/>
  <unicode hex="002B"/>
  <outline>
    <contour>
      <point x="401" y="982" type="line"/>
      <point x="401" y="632" type="line"/>
      <point x="36" y="632" type="line"/>
      <point x="36" y="350" type="line"/>
      <point x="401" y="350" type="line"/>
      <point x="401" y="0" type="line"/>
      <point x="723" y="0" type="line"/>
      <point x="723" y="350" type="line"/>
      <point x="1088" y="350" type="line"/>
      <point x="1088" y="632" type="line"/>
      <point x="723" y="632" type="line"/>
      <point x="723" y="982" type="line"/>
    </contour>
  </outline>
</glyph>
<glyph name="comma" format="2">
  <advance width="598.4"/>
  <unicode hex="002C"/>
  <outline>
    <contour>
      <point x="268" y="-329" type="line"/>
      <point x="438" y="-246"/>
      <point x="551" y="-77"/>
      <point x="551" y="79" type="curve" smooth="yes"/>
      <point x="551" y="231"/>
      <point x="462" y="352"/>
      <point x="306" y="352" type="curve" smooth="yes"/>
      <point x="183" y="352"/>
      <point x="92" y="273"/>
      <point x="92" y="168" type="curve" smooth="yes"/>
      <point x="92" y="73"/>
      <point x="166" y="12"/>
      <point x="257" y="-10" type="curve"/>
      <point x="229" y="-90"/>
      <point x="136" y="-159"/>
      <point x="35" y="-209" type="curve"/>
    </contour>
  </outline>
</glyph>
<glyph name="hyphen" format="2">
  <advance width="800.55"/>
  <unicode hex="002D"/>
  <outline>
    <contour>
      <point x="109" y="485" type="line"/>
      <point x="690" y="485" type="line"/>
      <point x="690" y="765" type="line"/>
      <point x="109" y="765" type="line"/>
    </contour>
  </outline>
</glyph>
<glyph name="period" format="2">
  <advance width="506.65"/>
  <unicode hex="002E"/>
  <outline>
    <contour>
      <point x="35" y="188" type="curve" smooth="yes"/>
      <point x="35" y="67"/>
      <point x="122" y="-18"/>
      <point x="250" y="-18" type="curve" smooth="yes"/>
      <point x="375" y="-18"/>
      <point x="468" y="67"/>
      <point x="468" y="188" type="curve" smooth="yes"/>
      <point x="468" y="304"/>
      <point x="375" y="393"/>
      <point x="250" y="393" type="curve" smooth="yes"/>
      <point x="122" y="393"/>
      <point x="35" y="304"/>
    </contour>
  </outline>
</glyph>
<glyph name="slash" format="2">
  <advance width="1027"/>
  <unicode hex="002F"/>
  <outline>
    <contour>
      <point x="98" y="-177" type="line"/>
      <point x="422" y="-177" type="line"/>
      <point x="952" y="1519" type="line"/>
      <point x="624" y="1519" type="line"/>
    </contour>
  </outline>
</glyph>
<glyph name="zero" format="2">
  <advance width="1346.9"/>
  <unicode hex="0030"/>
  <outline>
    <contour>
      <point x="676" y="-32" type="curve" smooth="yes"/>
      <point x="1015" y="-32"/>
      <point x="1262" y="192"/>
      <point x="1262" y="669" type="curve" smooth="yes"/>
      <point x="1262" y="1150"/>
      <point x="1015" y="1372"/>
      <point x="676" y="1372" type="curve" smooth="yes"/>
      <point x="331" y="1372"/>
      <point x="86" y="1150"/>
      <point x="86" y="669" type="curve" smooth="yes"/>
      <point x="86" y="192"/>
      <point x="331" y="-32"/>
    </contour>
    <contour>
      <point x="676" y="259" type="curve" smooth="yes"/>
      <point x="515" y="259"/>
      <point x="416" y="398"/>
      <point x="416" y="669" type="curve" smooth="yes"/>
      <point x="416" y="940"/>
      <point x="515" y="1083"/>
      <point x="676" y="1083" type="curve" smooth="yes"/>
      <point x="830" y="1083"/>
      <point x="932" y="940"/>
      <point x="932" y="669" type="curve" smooth="yes"/>
      <point x="932" y="398"/>
      <point x="830" y="259"/>
    </contour>
  </outline>
</glyph>
<glyph name="one" format="2">
  <advance width="767.6"/>
  <unicode hex="0031"/>
  <outline>
    <contour>
      <point x="365" y="1354" type="line"/>
      <point x="256" y="1282"/>
      <point x="168" y="1252"/>
      <point x="71" y="1244" type="curve"/>
      <point x="71" y="940" type="line"/>
      <point x="137" y="938"/>
      <point x="201" y="950"/>
      <point x="277" y="969" type="curve"/>
      <point x="277" y="0" type="line"/>
      <point x="597" y="0" type="line"/>
      <point x="597" y="1354" type="line"/>
    </contour>
  </outline>
</glyph>
<glyph name="two" format="2">
  <advance width="1263.55"/>
  <unicode hex="0032"/>
  <outline>
    <contour>
      <point x="112" y="0" type="line"/>
      <point x="1186" y="0" type="line"/>
      <point x="1186" y="292" type="line"/>
      <point x="432" y="292" type="line"/>
      <point x="432" y="307" type="line" smooth="yes"/>
      <point x="432" y="351"/>
      <point x="455" y="374"/>
      <point x="533" y="403" type="curve" smooth="yes"/>
      <point x="816" y="510" type="line" smooth="yes"/>
      <point x="1088" y="612"/>
      <point x="1190" y="743"/>
      <point x="1190" y="949" type="curve" smooth="yes"/>
      <point x="1190" y="1208"/>
      <point x="959" y="1372"/>
      <point x="676" y="1372" type="curve" smooth="yes"/>
      <point x="383" y="1372"/>
      <point x="131" y="1234"/>
      <point x="134" y="918" type="curve"/>
      <point x="488" y="918" type="line"/>
      <point x="498" y="1031"/>
      <point x="581" y="1095"/>
      <point x="682" y="1095" type="curve" smooth="yes"/>
      <point x="791" y="1095"/>
      <point x="848" y="1030"/>
      <point x="848" y="959" type="curve" smooth="yes"/>
      <point x="848" y="882"/>
      <point x="804" y="829"/>
      <point x="701" y="789" type="curve" smooth="yes"/>
      <point x="416" y="683" type="line" smooth="yes"/>
      <point x="195" y="600"/>
      <point x="112" y="478"/>
      <point x="112" y="260" type="curve" smooth="yes"/>
    </contour>
  </outline>
</glyph>
<glyph name="three" format="2">
  <advance width="1310.15"/>
  <unicode hex="0033"/>
  <outline>
    <contour>
      <point x="660" y="-32" type="curve" smooth="yes"/>
      <point x="995" y="-32"/>
      <point x="1230" y="138"/>
      <point x="1230" y="383" type="curve" smooth="yes"/>
      <point x="1230" y="533"/>
      <point x="1135" y="641"/>
      <point x="981" y="703" type="curve"/>
      <point x="1119" y="749"/>
      <point x="1188" y="857"/>
      <point x="1188" y="989" type="curve" smooth="yes"/>
      <point x="1188" y="1218"/>
      <point x="959" y="1372"/>
      <point x="644" y="1372" type="curve" smooth="yes"/>
      <point x="334" y="1372"/>
      <point x="113" y="1235"/>
      <point x="89" y="936" type="curve"/>
      <point x="429" y="936" type="line"/>
      <point x="445" y="1039"/>
      <point x="546" y="1083"/>
      <point x="660" y="1083" type="curve" smooth="yes"/>
      <point x="791" y="1083"/>
      <point x="844" y="1026"/>
      <point x="844" y="947" type="curve" smooth="yes"/>
      <point x="844" y="860"/>
      <point x="781" y="802"/>
      <point x="674" y="802" type="curve" smooth="yes"/>
      <point x="475" y="802" type="line"/>
      <point x="475" y="551" type="line"/>
      <point x="679" y="551" type="line" smooth="yes"/>
      <point x="810" y="551"/>
      <point x="884" y="509"/>
      <point x="884" y="415" type="curve" smooth="yes"/>
      <point x="884" y="324"/>
      <point x="796" y="259"/>
      <point x="660" y="259" type="curve" smooth="yes"/>
      <point x="510" y="259"/>
      <point x="426" y="335"/>
      <point x="414" y="433" type="curve"/>
      <point x="73" y="433" type="line"/>
      <point x="73" y="126"/>
      <point x="362" y="-32"/>
    </contour>
  </outline>
</glyph>
<glyph name="four" format="2">
  <advance width="1266.65"/>
  <unicode hex="0034"/>
  <outline>
    <contour>
      <point x="706" y="1352" type="line"/>
      <point x="36" y="508" type="line"/>
      <point x="36" y="269" type="line"/>
      <point x="702" y="269" type="line"/>
      <point x="702" y="0" type="line"/>
      <point x="1020" y="0" type="line"/>
      <point x="1020" y="269" type="line"/>
      <point x="1254" y="269" type="line"/>
      <point x="1254" y="545" type="line"/>
      <point x="1020" y="545" type="line"/>
      <point x="1020" y="1352" type="line"/>
    </contour>
    <contour>
      <point x="720" y="893" type="line"/>
      <point x="720" y="508" type="line"/>
      <point x="414" y="508" type="line"/>
    </contour>
  </outline>
</glyph>
<glyph name="five" format="2">
  <advance width="1200.75"/>
  <unicode hex="0035"/>
  <outline>
    <contour>
      <point x="625" y="-32" type="curve" smooth="yes"/>
      <point x="940" y="-32"/>
      <point x="1155" y="187"/>
      <point x="1155" y="459" type="curve" smooth="yes"/>
      <point x="1155" y="703"/>
      <point x="981" y="850"/>
      <point x="717" y="850" type="curve" smooth="yes"/>
      <point x="654" y="850"/>
      <point x="543" y="840"/>
      <point x="479" y="826" type="curve"/>
      <point x="499" y="800" type="line"/>
      <point x="533" y="1131" type="line"/>
      <point x="472" y="1048" type="line"/>
      <point x="1079" y="1048" type="line"/>
      <point x="1079" y="1342" type="line"/>
      <point x="215" y="1342" type="line"/>
      <point x="149" y="615" type="line"/>
      <point x="608" y="615" type="line" smooth="yes"/>
      <point x="756" y="615"/>
      <point x="829" y="560"/>
      <point x="829" y="459" type="curve" smooth="yes"/>
      <point x="829" y="347"/>
      <point x="736" y="259"/>
      <point x="625" y="259" type="curve" smooth="yes"/>
      <point x="510" y="259"/>
      <point x="425" y="313"/>
      <point x="425" y="428" type="curve"/>
      <point x="97" y="428" type="line"/>
      <point x="107" y="137"/>
      <point x="301" y="-32"/>
    </contour>
  </outline>
</glyph>
<glyph name="six" format="2">
  <advance width="1286.45"/>
  <unicode hex="0036"/>
  <outline>
    <contour>
      <point x="688" y="-32" type="curve" smooth="yes"/>
      <point x="995" y="-32"/>
      <point x="1206" y="144"/>
      <point x="1206" y="405" type="curve" smooth="yes"/>
      <point x="1206" y="655"/>
      <point x="1038" y="838"/>
      <point x="778" y="838" type="curve" smooth="yes"/>
      <point x="614" y="838"/>
      <point x="456" y="770"/>
      <point x="409" y="545" type="curve"/>
      <point x="405" y="573"/>
      <point x="403" y="602"/>
      <point x="403" y="631" type="curve" smooth="yes"/>
      <point x="403" y="908"/>
      <point x="521" y="1083"/>
      <point x="702" y="1083" type="curve" smooth="yes"/>
      <point x="791" y="1083"/>
      <point x="842" y="1031"/>
      <point x="850" y="944" type="curve"/>
      <point x="1188" y="944" type="line"/>
      <point x="1189" y="1204"/>
      <point x="983" y="1372"/>
      <point x="690" y="1372" type="curve" smooth="yes"/>
      <point x="337" y="1372"/>
      <point x="86" y="1118"/>
      <point x="86" y="647" type="curve" smooth="yes"/>
      <point x="86" y="248"/>
      <point x="337" y="-32"/>
    </contour>
    <contour>
      <point x="688" y="259" type="curve" smooth="yes"/>
      <point x="591" y="259"/>
      <point x="504" y="327"/>
      <point x="504" y="421" type="curve" smooth="yes"/>
      <point x="504" y="524"/>
      <point x="591" y="585"/>
      <point x="688" y="585" type="curve" smooth="yes"/>
      <point x="787" y="585"/>
      <point x="878" y="524"/>
      <point x="878" y="421" type="curve" smooth="yes"/>
      <point x="878" y="327"/>
      <point x="787" y="259"/>
    </contour>
  </outline>
</glyph>
<glyph name="seven" format="2">
  <advance width="1053.8"/>
  <unicode hex="0037"/>
  <outline>
    <contour>
      <point x="57" y="0" type="line"/>
      <point x="490" y="0" type="line"/>
      <point x="1019" y="1030" type="line"/>
      <point x="1019" y="1342" type="line"/>
      <point x="48" y="1342" type="line"/>
      <point x="48" y="1030" type="line"/>
      <point x="642" y="1030" type="line"/>
    </contour>
  </outline>
</glyph>
<glyph name="nine" format="2">
  <advance width="1283"/>
  <unicode hex="0039"/>
  <outline>
    <contour>
      <point x="621" y="-32" type="curve" smooth="yes"/>
      <point x="998" y="-32"/>
      <point x="1197" y="250"/>
      <point x="1197" y="689" type="curve" smooth="yes"/>
      <point x="1197" y="1094"/>
      <point x="924" y="1372"/>
      <point x="591" y="1372" type="curve" smooth="yes"/>
      <point x="292" y="1372"/>
      <point x="79" y="1196"/>
      <point x="79" y="933" type="curve" smooth="yes"/>
      <point x="79" y="680"/>
      <point x="247" y="504"/>
      <point x="508" y="504" type="curve" smooth="yes"/>
      <point x="667" y="504"/>
      <point x="825" y="569"/>
      <point x="876" y="793" type="curve"/>
      <point x="880" y="766"/>
      <point x="882" y="734"/>
      <point x="882" y="707" type="curve" smooth="yes"/>
      <point x="882" y="443"/>
      <point x="808" y="259"/>
      <point x="609" y="259" type="curve" smooth="yes"/>
      <point x="523" y="259"/>
      <point x="441" y="312"/>
      <point x="433" y="397" type="curve"/>
      <point x="99" y="397" type="line"/>
      <point x="99" y="138"/>
      <point x="332" y="-32"/>
    </contour>
    <contour>
      <point x="595" y="757" type="curve" smooth="yes"/>
      <point x="496" y="757"/>
      <point x="409" y="814"/>
      <point x="409" y="915" type="curve" smooth="yes"/>
      <point x="409" y="1015"/>
      <point x="496" y="1079"/>
      <point x="591" y="1079" type="curve" smooth="yes"/>
      <point x="690" y="1079"/>
      <point x="781" y="1015"/>
      <point x="781" y="915" type="curve" smooth="yes"/>
      <point x="781" y="816"/>
      <point x="690" y="757"/>
    </contour>
  </outline>
</glyph>
<glyph name="less" format="2">
  <advance width="1106.9"/>
  <unicode hex="003C"/>
  <outline>
    <contour>
      <point x="806" y="1331" type="line"/>
      <point x="98" y="826" type="line"/>
      <point x="98" y="534" type="line"/>
      <point x="806" y="31" type="line"/>
      <point x="1019" y="272" type="line"/>
      <point x="331" y="749" type="line"/>
      <point x="331" y="611" type="line"/>
      <point x="1019" y="1088" type="line"/>
    </contour>
  </outline>
</glyph>
<glyph name="greater" format="2">
  <advance width="1106.9"/>
  <unicode hex="003E"/>
  <outline>
    <contour>
      <point x="299" y="31" type="line"/>
      <point x="1006" y="534" type="line"/>
      <point x="1006" y="826" type="line"/>
      <point x="299" y="1331" type="line"/>
      <point x="86" y="1088" type="line"/>
      <point x="774" y="611" type="line"/>
      <point x="774" y="749" type="line"/>
      <point x="86" y="272" type="line"/>
    </contour>
  </outline>
</glyph>
<glyph name="question" format="2">
  <advance width="1072.85"/>
  <unicode hex="003F"/>
  <outline>
    <contour>
      <point x="346" y="459" type="line"/>
      <point x="668" y="459" type="line"/>
      <point x="668" y="494" type="line" smooth="yes"/>
      <point x="668" y="571"/>
      <point x="702" y="613"/>
      <point x="827" y="671" type="curve" smooth="yes"/>
      <point x="969" y="736"/>
      <point x="1039" y="833"/>
      <point x="1039" y="975" type="curve" smooth="yes"/>
      <point x="1039" y="1204"/>
      <point x="842" y="1372"/>
      <point x="529" y="1372" type="curve" smooth="yes"/>
      <point x="220" y="1372"/>
      <point x="45" y="1199"/>
      <point x="35" y="927" type="curve"/>
      <point x="365" y="927" type="line"/>
      <point x="363" y="1015"/>
      <point x="430" y="1083"/>
      <point x="545" y="1083" type="curve" smooth="yes"/>
      <point x="632" y="1083"/>
      <point x="685" y="1037"/>
      <point x="685" y="975" type="curve" smooth="yes"/>
      <point x="685" y="924"/>
      <point x="666" y="886"/>
      <point x="548" y="830" type="curve" smooth="yes"/>
      <point x="410" y="769"/>
      <point x="346" y="703"/>
      <point x="346" y="529" type="curve" smooth="yes"/>
    </contour>
    <contour>
      <point x="516" y="-32" type="curve" smooth="yes"/>
      <point x="644" y="-32"/>
      <point x="734" y="55"/>
      <point x="734" y="170" type="curve" smooth="yes"/>
      <point x="734" y="289"/>
      <point x="644" y="374"/>
      <point x="516" y="374" type="curve" smooth="yes"/>
      <point x="387" y="374"/>
      <point x="302" y="289"/>
      <point x="302" y="170" type="curve" smooth="yes"/>
      <point x="302" y="55"/>
      <point x="387" y="-32"/>
    </contour>
  </outline>
</glyph>
<glyph name="at" format="2">
  <advance width="2237.8"/>
  <unicode hex="0040"/>
  <outline>
    <contour>
      <point x="1190" y="-512" type="curve"/>
      <point x="1190" y="-250" type="line"/>
      <point x="701" y="-250"/>
      <point x="454" y="16"/>
      <point x="454" y="366" type="curve" smooth="yes"/>
      <point x="454" y="789"/>
      <point x="775" y="1083"/>
      <point x="1221" y="1083" type="curve" smooth="yes"/>
      <point x="1611" y="1083"/>
      <point x="1809" y="857"/>
      <point x="1809" y="580" type="curve" smooth="yes"/>
      <point x="1809" y="293"/>
      <point x="1659" y="225"/>
      <point x="1604" y="225" type="curve" smooth="yes"/>
      <point x="1562" y="225"/>
      <point x="1538" y="249"/>
      <point x="1538" y="325" type="curve" smooth="yes"/>
      <point x="1538" y="543" type="line" smooth="yes"/>
      <point x="1538" y="774"/>
      <point x="1416" y="890"/>
      <point x="1219" y="890" type="curve" smooth="yes"/>
      <point x="934" y="890"/>
      <point x="699" y="658"/>
      <point x="699" y="365" type="curve" smooth="yes"/>
      <point x="699" y="141"/>
      <point x="867" y="-30"/>
      <point x="1044" y="-30" type="curve" smooth="yes"/>
      <point x="1184" y="-30"/>
      <point x="1246" y="23"/>
      <point x="1302" y="126" type="curve"/>
      <point x="1320" y="91" type="line" smooth="yes"/>
      <point x="1355" y="20"/>
      <point x="1451" y="-30"/>
      <point x="1592" y="-30" type="curve" smooth="yes"/>
      <point x="1855" y="-30"/>
      <point x="2128" y="172"/>
      <point x="2128" y="580" type="curve" smooth="yes"/>
      <point x="2128" y="1025"/>
      <point x="1763" y="1372"/>
      <point x="1221" y="1372" type="curve" smooth="yes"/>
      <point x="609" y="1372"/>
      <point x="134" y="991"/>
      <point x="134" y="391" type="curve" smooth="yes"/>
      <point x="134" y="-102"/>
      <point x="549" y="-512"/>
    </contour>
    <contour>
      <point x="1115" y="227" type="curve" smooth="yes"/>
      <point x="1040" y="227"/>
      <point x="978" y="276"/>
      <point x="978" y="371" type="curve" smooth="yes"/>
      <point x="978" y="540"/>
      <point x="1103" y="646"/>
      <point x="1207" y="646" type="curve" smooth="yes"/>
      <point x="1276" y="646"/>
      <point x="1291" y="590"/>
      <point x="1291" y="539" type="curve" smooth="yes"/>
      <point x="1291" y="354" type="line"/>
      <point x="1240" y="264"/>
      <point x="1196" y="227"/>
    </contour>
  </outline>
</glyph>
<glyph name="A" format="2">
  <advance width="1358.1"/>
  <unicode hex="0041"/>
  <anchor x="689" y="1381" name="above"/>
  <outline>
    <contour>
      <point x="36" y="0" type="line"/>
      <point x="376" y="0" type="line"/>
      <point x="449" y="236" type="line"/>
      <point x="912" y="236" type="line"/>
      <point x="985" y="0" type="line"/>
      <point x="1322" y="0" type="line"/>
      <point x="895" y="1342" type="line"/>
      <point x="488" y="1342" type="line"/>
    </contour>
    <contour>
      <point x="530" y="473" type="line"/>
      <point x="687" y="964" type="line"/>
      <point x="839" y="473" type="line"/>
    </contour>
  </outline>
</glyph>
<glyph name="B" format="2">
  <advance width="1351.65"/>
  <unicode hex="0042"/>
  <outline>
    <contour>
      <point x="169" y="0" type="line"/>
      <point x="754" y="0" type="line" smooth="yes"/>
      <point x="1160" y="0"/>
      <point x="1256" y="221"/>
      <point x="1256" y="379" type="curve" smooth="yes"/>
      <point x="1256" y="556"/>
      <point x="1141" y="645"/>
      <point x="1004" y="681" type="curve"/>
      <point x="1141" y="727"/>
      <point x="1234" y="833"/>
      <point x="1234" y="981" type="curve" smooth="yes"/>
      <point x="1234" y="1186"/>
      <point x="1075" y="1342"/>
      <point x="750" y="1342" type="curve" smooth="yes"/>
      <point x="169" y="1342" type="line"/>
    </contour>
    <contour>
      <point x="489" y="280" type="line"/>
      <point x="489" y="527" type="line"/>
      <point x="744" y="527" type="line" smooth="yes"/>
      <point x="858" y="527"/>
      <point x="909" y="476"/>
      <point x="909" y="399" type="curve" smooth="yes"/>
      <point x="909" y="322"/>
      <point x="852" y="280"/>
      <point x="744" y="280" type="curve" smooth="yes"/>
    </contour>
    <contour>
      <point x="489" y="1065" type="line"/>
      <point x="738" y="1065" type="line" smooth="yes"/>
      <point x="859" y="1065"/>
      <point x="906" y="1007"/>
      <point x="906" y="935" type="curve" smooth="yes"/>
      <point x="906" y="860"/>
      <point x="859" y="809"/>
      <point x="736" y="809" type="curve" smooth="yes"/>
      <point x="489" y="809" type="line"/>
    </contour>
  </outline>
</glyph>
<glyph name="C" format="2">
  <advance width="1310.05"/>
  <unicode hex="0043"/>
  <outline>
    <contour>
      <point x="679" y="-32" type="curve" smooth="yes"/>
      <point x="1030" y="-32"/>
      <point x="1222" y="138"/>
      <point x="1222" y="449" type="curve"/>
      <point x="884" y="449" type="line"/>
      <point x="884" y="345"/>
      <point x="816" y="262"/>
      <point x="679" y="262" type="curve" smooth="yes"/>
      <point x="534" y="262"/>
      <point x="430" y="393"/>
      <point x="430" y="669" type="curve" smooth="yes"/>
      <point x="430" y="950"/>
      <point x="530" y="1081"/>
      <point x="679" y="1081" type="curve" smooth="yes"/>
      <point x="790" y="1081"/>
      <point x="853" y="997"/>
      <point x="884" y="882" type="curve"/>
      <point x="1224" y="941" type="line"/>
      <point x="1191" y="1196"/>
      <point x="1017" y="1372"/>
      <point x="679" y="1372" type="curve" smooth="yes"/>
      <point x="326" y="1372"/>
      <point x="86" y="1132"/>
      <point x="86" y="669" type="curve" smooth="yes"/>
      <point x="86" y="207"/>
      <point x="327" y="-32"/>
    </contour>
  </outline>
</glyph>
<glyph name="D" format="2">
  <advance width="1428.65"/>
  <unicode hex="0044"/>
  <outline>
    <contour>
      <point x="169" y="1342" type="line"/>
      <point x="169" y="0" type="line"/>
      <point x="644" y="0" type="line" smooth="yes"/>
      <point x="1057" y="0"/>
      <point x="1346" y="258"/>
      <point x="1346" y="669" type="curve" smooth="yes"/>
      <point x="1346" y="1084"/>
      <point x="1057" y="1342"/>
      <point x="644" y="1342" type="curve" smooth="yes"/>
    </contour>
    <contour>
      <point x="489" y="1048" type="line"/>
      <point x="644" y="1048" type="line" smooth="yes"/>
      <point x="862" y="1048"/>
      <point x="999" y="892"/>
      <point x="999" y="669" type="curve" smooth="yes"/>
      <point x="999" y="453"/>
      <point x="862" y="292"/>
      <point x="644" y="292" type="curve" smooth="yes"/>
      <point x="489" y="292" type="line"/>
    </contour>
  </outline>
</glyph>
<glyph name="E" format="2">
  <advance width="1224.45"/>
  <unicode hex="0045"/>
  <anchor x="613" y="1381" name="above"/>
  <outline>
    <contour>
      <point x="167" y="0" type="line"/>
      <point x="1064" y="0" type="line"/>
      <point x="1064" y="280" type="line"/>
      <point x="487" y="280" type="line"/>
      <point x="487" y="529" type="line"/>
      <point x="1028" y="529" type="line"/>
      <point x="1028" y="807" type="line"/>
      <point x="487" y="807" type="line"/>
      <point x="487" y="1065" type="line"/>
      <point x="1064" y="1065" type="line"/>
      <point x="1064" y="1342" type="line"/>
      <point x="167" y="1342" type="line"/>
    </contour>
  </outline>
</glyph>
<glyph name="F" format="2">
  <advance width="1140.25"/>
  <unicode hex="0046"/>
  <outline>
    <contour>
      <point x="169" y="0" type="line"/>
      <point x="489" y="0" type="line"/>
      <point x="489" y="529" type="line"/>
      <point x="986" y="529" type="line"/>
      <point x="986" y="802" type="line"/>
      <point x="489" y="802" type="line"/>
      <point x="489" y="1065" type="line"/>
      <point x="1044" y="1065" type="line"/>
      <point x="1044" y="1342" type="line"/>
      <point x="169" y="1342" type="line"/>
    </contour>
  </outline>
</glyph>
<glyph name="G" format="2">
  <advance width="1423.3"/>
  <unicode hex="0047"/>
  <outline>
    <contour>
      <point x="677" y="-32" type="curve" smooth="yes"/>
      <point x="914" y="-32"/>
      <point x="1030" y="174"/>
      <point x="1030" y="502" type="curve"/>
      <point x="974" y="502" type="line"/>
      <point x="974" y="367"/>
      <point x="861" y="259"/>
      <point x="707" y="259" type="curve" smooth="yes"/>
      <point x="551" y="259"/>
      <point x="432" y="416"/>
      <point x="432" y="671" type="curve" smooth="yes"/>
      <point x="432" y="926"/>
      <point x="550" y="1083"/>
      <point x="707" y="1083" type="curve" smooth="yes"/>
      <point x="816" y="1083"/>
      <point x="890" y="1014"/>
      <point x="935" y="904" type="curve"/>
      <point x="1275" y="965" type="line"/>
      <point x="1198" y="1245"/>
      <point x="1015" y="1372"/>
      <point x="725" y="1372" type="curve" smooth="yes"/>
      <point x="341" y="1372"/>
      <point x="86" y="1085"/>
      <point x="86" y="671" type="curve" smooth="yes"/>
      <point x="86" y="259"/>
      <point x="340" y="-32"/>
    </contour>
    <contour>
      <point x="1014" y="0" type="line"/>
      <point x="1278" y="0" type="line"/>
      <point x="1278" y="712" type="line"/>
      <point x="707" y="712" type="line"/>
      <point x="707" y="516" type="line"/>
      <point x="974" y="514" type="line"/>
      <point x="974" y="276" type="line"/>
    </contour>
  </outline>
</glyph>
<glyph name="H" format="2">
  <advance width="1488.7"/>
  <unicode hex="0048"/>
  <outline>
    <contour>
      <point x="169" y="1342" type="line"/>
      <point x="169" y="0" type="line"/>
      <point x="489" y="0" type="line"/>
      <point x="489" y="531" type="line"/>
      <point x="996" y="531" type="line"/>
      <point x="996" y="0" type="line"/>
      <point x="1319" y="0" type="line"/>
      <point x="1319" y="1342" type="line"/>
      <point x="996" y="1342" type="line"/>
      <point x="996" y="813" type="line"/>
      <point x="489" y="813" type="line"/>
      <point x="489" y="1342" type="line"/>
    </contour>
  </outline>
</glyph>
<glyph name="I" format="2">
  <advance width="660.45"/>
  <unicode hex="0049"/>
  <anchor x="329" y="1381" name="above"/>
  <outline>
    <contour>
      <point x="169" y="0" type="line"/>
      <point x="489" y="0" type="line"/>
      <point x="489" y="1342" type="line"/>
      <point x="169" y="1342" type="line"/>
    </contour>
  </outline>
</glyph>
<glyph name="J" format="2">
  <advance width="971"/>
  <unicode hex="004A"/>
  <outline>
    <contour>
      <point x="49" y="46" type="line"/>
      <point x="149" y="0"/>
      <point x="268" y="-32"/>
      <point x="396" y="-32" type="curve" smooth="yes"/>
      <point x="637" y="-32"/>
      <point x="822" y="90"/>
      <point x="822" y="446" type="curve" smooth="yes"/>
      <point x="822" y="1342" type="line"/>
      <point x="498" y="1342" type="line"/>
      <point x="498" y="446" type="line" smooth="yes"/>
      <point x="498" y="325"/>
      <point x="452" y="280"/>
      <point x="366" y="280" type="curve" smooth="yes"/>
      <point x="280" y="280"/>
      <point x="167" y="297"/>
      <point x="49" y="359" type="curve"/>
    </contour>
  </outline>
</glyph>
<glyph name="K" format="2">
  <advance width="1405.65"/>
  <unicode hex="004B"/>
  <outline>
    <contour>
      <point x="949" y="1342" type="line"/>
      <point x="473" y="843" type="line"/>
      <point x="473" y="414" type="line"/>
      <point x="1386" y="1342" type="line"/>
    </contour>
    <contour>
      <point x="736" y="800" type="line"/>
      <point x="518" y="591" type="line"/>
      <point x="1015" y="0" type="line"/>
      <point x="1424" y="0" type="line"/>
    </contour>
    <contour>
      <point x="169" y="1342" type="line"/>
      <point x="169" y="0" type="line"/>
      <point x="491" y="0" type="line"/>
      <point x="491" y="1342" type="line"/>
    </contour>
  </outline>
</glyph>
<glyph name="L" format="2">
  <advance width="1043.65"/>
  <unicode hex="004C"/>
  <outline>
    <contour>
      <point x="489" y="1342" type="line"/>
      <point x="169" y="1342" type="line"/>
      <point x="169" y="0" type="line"/>
      <point x="996" y="0" type="line"/>
      <point x="996" y="280" type="line"/>
      <point x="489" y="280" type="line"/>
    </contour>
  </outline>
</glyph>
<glyph name="M" format="2">
  <advance width="1806.75"/>
  <unicode hex="004D"/>
  <outline>
    <contour>
      <point x="169" y="1342" type="line"/>
      <point x="169" y="0" type="line"/>
      <point x="489" y="0" type="line"/>
      <point x="489" y="953" type="line"/>
      <point x="463" y="953" type="line"/>
      <point x="806" y="125" type="line"/>
      <point x="1013" y="125" type="line"/>
      <point x="1358" y="955" type="line"/>
      <point x="1314" y="955" type="line"/>
      <point x="1314" y="0" type="line"/>
      <point x="1636" y="0" type="line"/>
      <point x="1636" y="1342" type="line"/>
      <point x="1196" y="1342" type="line"/>
      <point x="899" y="626" type="line"/>
      <point x="924" y="626" type="line"/>
      <point x="627" y="1342" type="line"/>
    </contour>
  </outline>
</glyph>
<glyph name="N" format="2">
  <advance width="1503.3"/>
  <unicode hex="004E"/>
  <anchor x="748" y="1381" name="above"/>
  <outline>
    <contour>
      <point x="163" y="1342" type="line"/>
      <point x="163" y="0" type="line"/>
      <point x="483" y="0" type="line"/>
      <point x="483" y="892" type="line"/>
      <point x="430" y="892" type="line"/>
      <point x="1025" y="0" type="line"/>
      <point x="1334" y="0" type="line"/>
      <point x="1334" y="1342" type="line"/>
      <point x="1014" y="1342" type="line"/>
      <point x="1014" y="530" type="line"/>
      <point x="1036" y="530" type="line"/>
      <point x="497" y="1342" type="line"/>
    </contour>
  </outline>
</glyph>
<glyph name="O" format="2">
  <advance width="1442.7"/>
  <unicode hex="004F"/>
  <anchor x="720" y="1381" name="above"/>
  <outline>
    <contour>
      <point x="720" y="-32" type="curve" smooth="yes"/>
      <point x="1106" y="-32"/>
      <point x="1358" y="204"/>
      <point x="1358" y="675" type="curve" smooth="yes"/>
      <point x="1358" y="1132"/>
      <point x="1106" y="1372"/>
      <point x="720" y="1372" type="curve" smooth="yes"/>
      <point x="338" y="1372"/>
      <point x="86" y="1148"/>
      <point x="86" y="675" type="curve" smooth="yes"/>
      <point x="86" y="213"/>
      <point x="338" y="-32"/>
    </contour>
    <contour>
      <point x="720" y="255" type="curve" smooth="yes"/>
      <point x="539" y="255"/>
      <point x="416" y="409"/>
      <point x="416" y="675" type="curve" smooth="yes"/>
      <point x="416" y="929"/>
      <point x="539" y="1085"/>
      <point x="720" y="1085" type="curve" smooth="yes"/>
      <point x="907" y="1085"/>
      <point x="1028" y="929"/>
      <point x="1028" y="677" type="curve" smooth="yes"/>
      <point x="1028" y="409"/>
      <point x="907" y="255"/>
    </contour>
  </outline>
</glyph>
<glyph name="P" format="2">
  <advance width="1217.7"/>
  <unicode hex="0050"/>
  <outline>
    <contour>
      <point x="161" y="0" type="line"/>
      <point x="483" y="0" type="line"/>
      <point x="483" y="459" type="line"/>
      <point x="676" y="459" type="line" smooth="yes"/>
      <point x="985" y="459"/>
      <point x="1180" y="612"/>
      <point x="1180" y="901" type="curve" smooth="yes"/>
      <point x="1180" y="1192"/>
      <point x="985" y="1342"/>
      <point x="676" y="1342" type="curve" smooth="yes"/>
      <point x="161" y="1342" type="line"/>
    </contour>
    <contour>
      <point x="483" y="739" type="line"/>
      <point x="483" y="1065" type="line"/>
      <point x="676" y="1065" type="line" smooth="yes"/>
      <point x="792" y="1065"/>
      <point x="852" y="989"/>
      <point x="852" y="901" type="curve" smooth="yes"/>
      <point x="852" y="814"/>
      <point x="792" y="739"/>
      <point x="676" y="739" type="curve" smooth="yes"/>
    </contour>
  </outline>
</glyph>
<glyph name="Q" format="2">
  <advance width="1444.45"/>
  <unicode hex="0051"/>
  <outline>
    <contour>
      <point x="720" y="-32" type="curve" smooth="yes"/>
      <point x="1106" y="-32"/>
      <point x="1358" y="204"/>
      <point x="1358" y="675" type="curve" smooth="yes"/>
      <point x="1358" y="1132"/>
      <point x="1106" y="1372"/>
      <point x="720" y="1372" type="curve" smooth="yes"/>
      <point x="338" y="1372"/>
      <point x="86" y="1148"/>
      <point x="86" y="675" type="curve" smooth="yes"/>
      <point x="86" y="213"/>
      <point x="338" y="-32"/>
    </contour>
    <contour>
      <point x="1141" y="-387" type="curve" smooth="yes"/>
      <point x="1203" y="-387"/>
      <point x="1261" y="-379"/>
      <point x="1325" y="-353" type="curve"/>
      <point x="1325" y="-34" type="line"/>
      <point x="1257" y="-58"/>
      <point x="1193" y="-74"/>
      <point x="1131" y="-74" type="curve" smooth="yes"/>
      <point x="1073" y="-72"/>
      <point x="1017" y="-54"/>
      <point x="985" y="-2" type="curve" smooth="yes"/>
      <point x="869" y="193" type="line"/>
      <point x="631" y="59" type="line"/>
      <point x="769" y="-160" type="line" smooth="yes"/>
      <point x="857" y="-301"/>
      <point x="994" y="-387"/>
    </contour>
    <contour>
      <point x="720" y="255" type="curve" smooth="yes"/>
      <point x="539" y="255"/>
      <point x="416" y="409"/>
      <point x="416" y="675" type="curve" smooth="yes"/>
      <point x="416" y="929"/>
      <point x="539" y="1085"/>
      <point x="720" y="1085" type="curve" smooth="yes"/>
      <point x="907" y="1085"/>
      <point x="1028" y="929"/>
      <point x="1028" y="677" type="curve" smooth="yes"/>
      <point x="1028" y="409"/>
      <point x="907" y="255"/>
    </contour>
  </outline>
</glyph>
<glyph name="R" format="2">
  <advance width="1352.1"/>
  <unicode hex="0052"/>
  <outline>
    <contour>
      <point x="169" y="0" type="line"/>
      <point x="489" y="0" type="line"/>
      <point x="489" y="498" type="line"/>
      <point x="693" y="498" type="line" smooth="yes"/>
      <point x="1029" y="498"/>
      <point x="1224" y="664"/>
      <point x="1224" y="917" type="curve" smooth="yes"/>
      <point x="1224" y="1176"/>
      <point x="1029" y="1342"/>
      <point x="693" y="1342" type="curve" smooth="yes"/>
      <point x="169" y="1342" type="line"/>
    </contour>
    <contour>
      <point x="869" y="0" type="line"/>
      <point x="1288" y="0" type="line"/>
      <point x="880" y="648" type="line"/>
      <point x="542" y="648" type="line"/>
    </contour>
    <contour>
      <point x="489" y="706" type="line"/>
      <point x="489" y="1065" type="line"/>
      <point x="693" y="1065" type="line" smooth="yes"/>
      <point x="828" y="1065"/>
      <point x="895" y="989"/>
      <point x="895" y="882" type="curve" smooth="yes"/>
      <point x="895" y="779"/>
      <point x="816" y="706"/>
      <point x="657" y="706" type="curve" smooth="yes"/>
    </contour>
  </outline>
</glyph>
<glyph name="S" format="2">
  <advance width="1344.3"/>
  <unicode hex="0053"/>
  <outline>
    <contour>
      <point x="674" y="-32" type="curve" smooth="yes"/>
      <point x="1021" y="-32"/>
      <point x="1222" y="105"/>
      <point x="1222" y="375" type="curve" smooth="yes"/>
      <point x="1222" y="543"/>
      <point x="1122" y="659"/>
      <point x="917" y="748" type="curve" smooth="yes"/>
      <point x="608" y="879" type="line" smooth="yes"/>
      <point x="529" y="913"/>
      <point x="490" y="936"/>
      <point x="490" y="987" type="curve" smooth="yes"/>
      <point x="490" y="1042"/>
      <point x="557" y="1083"/>
      <point x="657" y="1083" type="curve" smooth="yes"/>
      <point x="795" y="1083"/>
      <point x="850" y="1015"/>
      <point x="866" y="927" type="curve"/>
      <point x="1180" y="927" type="line"/>
      <point x="1158" y="1212"/>
      <point x="983" y="1372"/>
      <point x="657" y="1372" type="curve" smooth="yes"/>
      <point x="336" y="1372"/>
      <point x="139" y="1220"/>
      <point x="139" y="993" type="curve" smooth="yes"/>
      <point x="139" y="799"/>
      <point x="251" y="700"/>
      <point x="443" y="618" type="curve" smooth="yes"/>
      <point x="735" y="491" type="line" smooth="yes"/>
      <point x="838" y="449"/>
      <point x="871" y="428"/>
      <point x="871" y="363" type="curve" smooth="yes"/>
      <point x="871" y="282"/>
      <point x="776" y="259"/>
      <point x="672" y="259" type="curve" smooth="yes"/>
      <point x="541" y="259"/>
      <point x="438" y="315"/>
      <point x="438" y="438" type="curve"/>
      <point x="122" y="438" type="line"/>
      <point x="138" y="106"/>
      <point x="385" y="-32"/>
    </contour>
  </outline>
</glyph>
<glyph name="T" format="2">
  <advance width="1128.1"/>
  <unicode hex="0054"/>
  <outline>
    <contour>
      <point x="12" y="1065" type="line"/>
      <point x="406" y="1065" type="line"/>
      <point x="406" y="0" type="line"/>
      <point x="726" y="0" type="line"/>
      <point x="726" y="1065" type="line"/>
      <point x="1117" y="1065" type="line"/>
      <point x="1117" y="1342" type="line"/>
      <point x="12" y="1342" type="line"/>
    </contour>
  </outline>
</glyph>
<glyph name="U" format="2">
  <advance width="1457.7"/>
  <unicode hex="0055"/>
  <anchor x="734" y="1381" name="above"/>
  <outline>
    <contour>
      <point x="158" y="1342" type="line"/>
      <point x="158" y="528" type="line" smooth="yes"/>
      <point x="158" y="187"/>
      <point x="362" y="-32"/>
      <point x="734" y="-32" type="curve" smooth="yes"/>
      <point x="1106" y="-32"/>
      <point x="1312" y="187"/>
      <point x="1312" y="528" type="curve" smooth="yes"/>
      <point x="1312" y="1342" type="line"/>
      <point x="993" y="1342" type="line"/>
      <point x="993" y="528" type="line" smooth="yes"/>
      <point x="993" y="337"/>
      <point x="883" y="259"/>
      <point x="734" y="259" type="curve" smooth="yes"/>
      <point x="587" y="259"/>
      <point x="478" y="337"/>
      <point x="478" y="528" type="curve" smooth="yes"/>
      <point x="478" y="1342" type="line"/>
    </contour>
  </outline>
</glyph>
<glyph name="V" format="2">
  <advance width="1289"/>
  <unicode hex="0056"/>
  <outline>
    <contour>
      <point x="630" y="355" type="line"/>
      <point x="658" y="355" type="line"/>
      <point x="374" y="1342" type="line"/>
      <point x="36" y="1342" type="line"/>
      <point x="472" y="0" type="line"/>
      <point x="810" y="0" type="line"/>
      <point x="1254" y="1342" type="line"/>
      <point x="920" y="1342" type="line"/>
    </contour>
  </outline>
</glyph>
<glyph name="W" format="2">
  <advance width="2003.25"/>
  <unicode hex="0057"/>
  <outline>
    <contour>
      <point x="12" y="1342" type="line"/>
      <point x="463" y="0" type="line"/>
      <point x="799" y="0" type="line"/>
      <point x="1005" y="676" type="line"/>
      <point x="991" y="676" type="line"/>
      <point x="1207" y="0" type="line"/>
      <point x="1544" y="0" type="line"/>
      <point x="1992" y="1342" type="line"/>
      <point x="1629" y="1342" type="line"/>
      <point x="1345" y="306" type="line"/>
      <point x="1410" y="306" type="line"/>
      <point x="1096" y="1302" type="line"/>
      <point x="880" y="1302" type="line"/>
      <point x="595" y="282" type="line"/>
      <point x="669" y="282" type="line"/>
      <point x="368" y="1342" type="line"/>
    </contour>
  </outline>
</glyph>
<glyph name="X" format="2">
  <advance width="1455.2"/>
  <unicode hex="0058"/>
  <outline>
    <contour>
      <point x="37" y="0" type="line"/>
      <point x="425" y="0" type="line"/>
      <point x="696" y="420" type="line"/>
      <point x="1015" y="0" type="line"/>
      <point x="1420" y="0" type="line"/>
      <point x="906" y="675" type="line"/>
      <point x="1346" y="1342" type="line"/>
      <point x="960" y="1342" type="line"/>
      <point x="726" y="920" type="line"/>
      <point x="434" y="1342" type="line"/>
      <point x="37" y="1342" type="line"/>
      <point x="511" y="669" type="line"/>
    </contour>
  </outline>
</glyph>
<glyph name="Y" format="2">
  <advance width="1252.8"/>
  <unicode hex="0059"/>
  <outline>
    <contour>
      <point x="10" y="1342" type="line"/>
      <point x="454" y="557" type="line"/>
      <point x="454" y="0" type="line"/>
      <point x="772" y="0" type="line"/>
      <point x="772" y="557" type="line"/>
      <point x="1242" y="1342" type="line"/>
      <point x="867" y="1342" type="line"/>
      <point x="592" y="839" type="line"/>
      <point x="644" y="839" type="line"/>
      <point x="386" y="1342" type="line"/>
    </contour>
  </outline>
</glyph>
<glyph name="Z" format="2">
  <advance width="1334.7"/>
  <unicode hex="005A"/>
  <outline>
    <contour>
      <point x="146" y="0" type="line"/>
      <point x="1191" y="0" type="line"/>
      <point x="1191" y="294" type="line"/>
      <point x="523" y="292" type="line"/>
      <point x="523" y="257" type="line"/>
      <point x="1191" y="1075" type="line"/>
      <point x="1191" y="1342" type="line"/>
      <point x="146" y="1342" type="line"/>
      <point x="146" y="1048" type="line"/>
      <point x="883" y="1051" type="line"/>
      <point x="883" y="1166" type="line"/>
      <point x="146" y="271" type="line"/>
    </contour>
  </outline>
</glyph>
<glyph name="bracketleft" format="2">
  <advance width="779.6"/>
  <unicode hex="005B"/>
  <outline>
    <contour>
      <point x="169" y="-366" type="line"/>
      <point x="768" y="-366" type="line"/>
      <point x="768" y="-72" type="line"/>
      <point x="489" y="-72" type="line"/>
      <point x="489" y="1412" type="line"/>
      <point x="768" y="1412" type="line"/>
      <point x="768" y="1706" type="line"/>
      <point x="169" y="1706" type="line"/>
    </contour>
  </outline>
</glyph>
<glyph name="asciicircum" format="2">
  <advance width="1224.1"/>
  <unicode hex="005E"/>
  <outline>
    <contour>
      <point x="38" y="379" type="line"/>
      <point x="386" y="379" type="line"/>
      <point x="675" y="1005" type="line"/>
      <point x="551" y="1005" type="line"/>
      <point x="838" y="379" type="line"/>
      <point x="1188" y="379" type="line"/>
      <point x="744" y="1242" type="line"/>
      <point x="482" y="1242" type="line"/>
    </contour>
  </outline>
</glyph>
<glyph name="grave" format="2">
  <advance width="803.3"/>
  <unicode hex="0060"/>
  <anchor x="400" y="1381" name="_above"/>
  <outline>
    <contour>
      <point x="48" y="1613" type="line"/>
      <point x="680" y="1424" type="line"/>
      <point x="754" y="1624" type="line"/>
      <point x="153" y="1886" type="line"/>
    </contour>
  </outline>
</glyph>
<glyph name="a" format="2">
  <advance width="1242.45"/>
  <unicode hex="0061"/>
  <anchor x="632" y="1094" name="above"/>
  <outline>
    <contour>
      <point x="815" y="0" type="line"/>
      <point x="1094" y="0" type="line"/>
      <point x="1094" y="620" type="line" smooth="yes"/>
      <point x="1094" y="886"/>
      <point x="918" y="1017"/>
      <point x="632" y="1017" type="curve" smooth="yes"/>
      <point x="304" y="1017"/>
      <point x="138" y="908"/>
      <point x="138" y="676" type="curve"/>
      <point x="484" y="676" type="line"/>
      <point x="484" y="736"/>
      <point x="528" y="788"/>
      <point x="632" y="788" type="curve" smooth="yes"/>
      <point x="749" y="788"/>
      <point x="774" y="731"/>
      <point x="774" y="632" type="curve" smooth="yes"/>
      <point x="774" y="263" type="line"/>
    </contour>
    <contour>
      <point x="505" y="-32" type="curve" smooth="yes"/>
      <point x="744" y="-32"/>
      <point x="849" y="156"/>
      <point x="849" y="385" type="curve"/>
      <point x="774" y="385" type="line"/>
      <point x="774" y="304"/>
      <point x="732" y="209"/>
      <point x="596" y="209" type="curve" smooth="yes"/>
      <point x="489" y="209"/>
      <point x="442" y="252"/>
      <point x="442" y="301" type="curve" smooth="yes"/>
      <point x="442" y="369"/>
      <point x="501" y="397"/>
      <point x="596" y="397" type="curve" smooth="yes"/>
      <point x="664" y="397"/>
      <point x="737" y="389"/>
      <point x="804" y="374" type="curve"/>
      <point x="804" y="554" type="line"/>
      <point x="713" y="571"/>
      <point x="635" y="585"/>
      <point x="523" y="585" type="curve" smooth="yes"/>
      <point x="247" y="585"/>
      <point x="100" y="474"/>
      <point x="100" y="301" type="curve" smooth="yes"/>
      <point x="100" y="116"/>
      <point x="240" y="-32"/>
    </contour>
  </outline>
</glyph>
<glyph name="b" format="2">
  <advance width="1273.15"/>
  <unicode hex="0062"/>
  <outline>
    <contour>
      <point x="726" y="-32" type="curve" smooth="yes"/>
      <point x="987" y="-32"/>
      <point x="1189" y="182"/>
      <point x="1189" y="498" type="curve" smooth="yes"/>
      <point x="1189" y="809"/>
      <point x="999" y="1017"/>
      <point x="752" y="1017" type="curve" smooth="yes"/>
      <point x="530" y="1017"/>
      <point x="405" y="859"/>
      <point x="405" y="542" type="curve"/>
      <point x="489" y="542" type="line"/>
      <point x="489" y="654"/>
      <point x="572" y="727"/>
      <point x="671" y="727" type="curve" smooth="yes"/>
      <point x="796" y="727"/>
      <point x="869" y="628"/>
      <point x="869" y="498" type="curve" smooth="yes"/>
      <point x="869" y="361"/>
      <point x="794" y="260"/>
      <point x="673" y="260" type="curve" smooth="yes"/>
      <point x="584" y="260"/>
      <point x="489" y="349"/>
      <point x="489" y="453" type="curve"/>
      <point x="405" y="453" type="line"/>
      <point x="405" y="118"/>
      <point x="555" y="-32"/>
    </contour>
    <contour>
      <point x="169" y="0" type="line"/>
      <point x="369" y="0" type="line"/>
      <point x="489" y="257" type="line"/>
      <point x="489" y="1380" type="line"/>
      <point x="169" y="1380" type="line"/>
    </contour>
  </outline>
</glyph>
<glyph name="c" format="2">
  <advance width="1087.35"/>
  <unicode hex="0063"/>
  <outline>
    <contour>
      <point x="571" y="-32" type="curve" smooth="yes"/>
      <point x="866" y="-32"/>
      <point x="1004" y="159"/>
      <point x="1004" y="371" type="curve"/>
      <point x="684" y="371" type="line"/>
      <point x="684" y="307"/>
      <point x="659" y="260"/>
      <point x="569" y="260" type="curve" smooth="yes"/>
      <point x="485" y="260"/>
      <point x="405" y="315"/>
      <point x="405" y="492" type="curve" smooth="yes"/>
      <point x="405" y="671"/>
      <point x="484" y="727"/>
      <point x="569" y="727" type="curve" smooth="yes"/>
      <point x="640" y="727"/>
      <point x="675" y="670"/>
      <point x="684" y="613" type="curve"/>
      <point x="1004" y="610" type="line"/>
      <point x="1005" y="795"/>
      <point x="861" y="1017"/>
      <point x="571" y="1017" type="curve" smooth="yes"/>
      <point x="312" y="1017"/>
      <point x="86" y="837"/>
      <point x="86" y="492" type="curve" smooth="yes"/>
      <point x="86" y="176"/>
      <point x="312" y="-32"/>
    </contour>
  </outline>
</glyph>
<glyph name="d" format="2">
  <advance width="1273.15"/>
  <unicode hex="0064"/>
  <outline>
    <contour>
      <point x="544" y="-32" type="curve" smooth="yes"/>
      <point x="716" y="-32"/>
      <point x="870" y="118"/>
      <point x="870" y="453" type="curve"/>
      <point x="781" y="453" type="line"/>
      <point x="781" y="349"/>
      <point x="692" y="260"/>
      <point x="599" y="260" type="curve" smooth="yes"/>
      <point x="480" y="260"/>
      <point x="405" y="361"/>
      <point x="405" y="498" type="curve" smooth="yes"/>
      <point x="405" y="628"/>
      <point x="476" y="727"/>
      <point x="603" y="727" type="curve" smooth="yes"/>
      <point x="700" y="727"/>
      <point x="781" y="654"/>
      <point x="781" y="542" type="curve"/>
      <point x="870" y="542" type="line"/>
      <point x="870" y="859"/>
      <point x="744" y="1017"/>
      <point x="522" y="1017" type="curve" smooth="yes"/>
      <point x="275" y="1017"/>
      <point x="85" y="809"/>
      <point x="85" y="498" type="curve" smooth="yes"/>
      <point x="85" y="182"/>
      <point x="287" y="-32"/>
    </contour>
    <contour>
      <point x="844" y="0" type="line"/>
      <point x="1105" y="0" type="line"/>
      <point x="1105" y="1380" type="line"/>
      <point x="781" y="1380" type="line"/>
      <point x="781" y="257" type="line"/>
    </contour>
  </outline>
</glyph>
<glyph name="e" format="2">
  <advance width="1094.65"/>
  <unicode hex="0065"/>
  <anchor x="545" y="1094" name="above"/>
  <outline>
    <contour>
      <point x="563" y="-32" type="curve" smooth="yes"/>
      <point x="806" y="-32"/>
      <point x="974" y="113"/>
      <point x="1004" y="298" type="curve"/>
      <point x="686" y="298" type="line"/>
      <point x="668" y="246"/>
      <point x="621" y="223"/>
      <point x="563" y="223" type="curve" smooth="yes"/>
      <point x="455" y="223"/>
      <point x="402" y="303"/>
      <point x="402" y="429" type="curve" smooth="yes"/>
      <point x="402" y="555" type="line" smooth="yes"/>
      <point x="402" y="688"/>
      <point x="467" y="764"/>
      <point x="569" y="764" type="curve" smooth="yes"/>
      <point x="691" y="764"/>
      <point x="722" y="653"/>
      <point x="714" y="559" type="curve"/>
      <point x="760" y="589" type="line"/>
      <point x="339" y="589" type="line"/>
      <point x="339" y="427" type="line"/>
      <point x="994" y="427" type="line"/>
      <point x="1061" y="726"/>
      <point x="894" y="1017"/>
      <point x="563" y="1017" type="curve" smooth="yes"/>
      <point x="313" y="1017"/>
      <point x="86" y="823"/>
      <point x="86" y="497" type="curve" smooth="yes"/>
      <point x="86" y="170"/>
      <point x="315" y="-32"/>
    </contour>
  </outline>
</glyph>
<glyph name="f" format="2">
  <advance width="787.5"/>
  <unicode hex="0066"/>
  <outline>
    <contour>
      <point x="229" y="0" type="line"/>
      <point x="554" y="0" type="line"/>
      <point x="554" y="1065" type="line" smooth="yes"/>
      <point x="554" y="1119"/>
      <point x="586" y="1147"/>
      <point x="634" y="1147" type="curve" smooth="yes"/>
      <point x="666" y="1147"/>
      <point x="698" y="1139"/>
      <point x="725" y="1132" type="curve"/>
      <point x="788" y="1375" type="line"/>
      <point x="712" y="1386"/>
      <point x="625" y="1398"/>
      <point x="551" y="1398" type="curve" smooth="yes"/>
      <point x="386" y="1398"/>
      <point x="229" y="1302"/>
      <point x="229" y="1071" type="curve" smooth="yes"/>
    </contour>
    <contour>
      <point x="98" y="778" type="line"/>
      <point x="711" y="778" type="line"/>
      <point x="711" y="985" type="line"/>
      <point x="98" y="985" type="line"/>
    </contour>
  </outline>
</glyph>
<glyph name="g" format="2">
  <advance width="1200.75"/>
  <unicode hex="0067"/>
  <outline>
    <contour>
      <point x="581" y="-513" type="curve" smooth="yes"/>
      <point x="925" y="-513"/>
      <point x="1151" y="-294"/>
      <point x="1151" y="-61" type="curve" smooth="yes"/>
      <point x="1151" y="120"/>
      <point x="1009" y="188"/>
      <point x="775" y="188" type="curve" smooth="yes"/>
      <point x="498" y="188" type="line" smooth="yes"/>
      <point x="409" y="188"/>
      <point x="371" y="214"/>
      <point x="371" y="259" type="curve" smooth="yes"/>
      <point x="371" y="311"/>
      <point x="414" y="338"/>
      <point x="470" y="338" type="curve"/>
      <point x="378" y="437" type="line"/>
      <point x="211" y="437"/>
      <point x="102" y="353"/>
      <point x="102" y="229" type="curve" smooth="yes"/>
      <point x="102" y="78"/>
      <point x="299" y="-33"/>
      <point x="498" y="-33" type="curve" smooth="yes"/>
      <point x="775" y="-33" type="line" smooth="yes"/>
      <point x="816" y="-33"/>
      <point x="835" y="-50"/>
      <point x="835" y="-85" type="curve" smooth="yes"/>
      <point x="835" y="-172"/>
      <point x="743" y="-259"/>
      <point x="581" y="-259" type="curve" smooth="yes"/>
      <point x="427" y="-259"/>
      <point x="317" y="-223"/>
      <point x="317" y="-143" type="curve" smooth="yes"/>
      <point x="317" y="-72"/>
      <point x="382" y="-33"/>
      <point x="498" y="-33" type="curve"/>
      <point x="235" y="42" type="line"/>
      <point x="104" y="42"/>
      <point x="1" y="-34"/>
      <point x="1" y="-161" type="curve" smooth="yes"/>
      <point x="1" y="-342"/>
      <point x="205" y="-513"/>
    </contour>
    <contour>
      <point x="576" y="321" type="curve" smooth="yes"/>
      <point x="811" y="321"/>
      <point x="1028" y="455"/>
      <point x="1028" y="667" type="curve" smooth="yes"/>
      <point x="1028" y="885"/>
      <point x="811" y="1017"/>
      <point x="576" y="1017" type="curve" smooth="yes"/>
      <point x="336" y="1017"/>
      <point x="125" y="885"/>
      <point x="125" y="667" type="curve" smooth="yes"/>
      <point x="125" y="455"/>
      <point x="336" y="321"/>
    </contour>
    <contour>
      <point x="580" y="540" type="curve" smooth="yes"/>
      <point x="484" y="540"/>
      <point x="441" y="596"/>
      <point x="441" y="667" type="curve" smooth="yes"/>
      <point x="441" y="749"/>
      <point x="484" y="800"/>
      <point x="576" y="800" type="curve" smooth="yes"/>
      <point x="677" y="800"/>
      <point x="714" y="749"/>
      <point x="714" y="667" type="curve" smooth="yes"/>
      <point x="714" y="596"/>
      <point x="677" y="540"/>
    </contour>
    <contour>
      <point x="952" y="857" type="line"/>
      <point x="952" y="920"/>
      <point x="1010" y="949"/>
      <point x="1121" y="949" type="curve"/>
      <point x="1133" y="1251" type="line"/>
      <point x="974" y="1251"/>
      <point x="808" y="1133"/>
      <point x="808" y="952" type="curve"/>
    </contour>
  </outline>
</glyph>
<glyph name="h" format="2">
  <advance width="1286.95"/>
  <unicode hex="0068"/>
  <outline>
    <contour>
      <point x="821" y="0" type="line"/>
      <point x="1143" y="0" type="line"/>
      <point x="1143" y="574" type="line" smooth="yes"/>
      <point x="1143" y="832"/>
      <point x="1033" y="1017"/>
      <point x="779" y="1017" type="curve" smooth="yes"/>
      <point x="557" y="1017"/>
      <point x="392" y="839"/>
      <point x="392" y="415" type="curve"/>
      <point x="489" y="415" type="line"/>
      <point x="489" y="641"/>
      <point x="581" y="727"/>
      <point x="691" y="727" type="curve" smooth="yes"/>
      <point x="763" y="727"/>
      <point x="821" y="678"/>
      <point x="821" y="574" type="curve" smooth="yes"/>
    </contour>
    <contour>
      <point x="169" y="0" type="line"/>
      <point x="489" y="0" type="line"/>
      <point x="489" y="1380" type="line"/>
      <point x="169" y="1380" type="line"/>
    </contour>
  </outline>
</glyph>
<glyph name="i" format="2">
  <advance width="719"/>
  <unicode hex="0069"/>
  <outline>
    <contour>
      <point x="200" y="0" type="line"/>
      <point x="520" y="0" type="line"/>
      <point x="520" y="991" type="line"/>
      <point x="200" y="991" type="line"/>
    </contour>
    <contour>
      <point x="360" y="1112" type="curve" smooth="yes"/>
      <point x="477" y="1112"/>
      <point x="550" y="1177"/>
      <point x="550" y="1290" type="curve" smooth="yes"/>
      <point x="550" y="1401"/>
      <point x="477" y="1472"/>
      <point x="360" y="1472" type="curve" smooth="yes"/>
      <point x="238" y="1472"/>
      <point x="170" y="1401"/>
      <point x="170" y="1290" type="curve" smooth="yes"/>
      <point x="170" y="1177"/>
      <point x="238" y="1112"/>
    </contour>
  </outline>
</glyph>
<glyph name="j" format="2">
  <advance width="715.15"/>
  <unicode hex="006A"/>
  <outline>
    <contour>
      <point x="162" y="-513" type="curve" smooth="yes"/>
      <point x="395" y="-513"/>
      <point x="517" y="-398"/>
      <point x="517" y="-95" type="curve" smooth="yes"/>
      <point x="517" y="989" type="line"/>
      <point x="195" y="989" type="line"/>
      <point x="195" y="-89" type="line"/>
      <point x="195" y="-204"/>
      <point x="155" y="-233"/>
      <point x="72" y="-233" type="curve" smooth="yes"/>
      <point x="8" y="-233"/>
      <point x="-74" y="-211"/>
      <point x="-131" y="-188" type="curve"/>
      <point x="-131" y="-463" type="line"/>
      <point x="-39" y="-488"/>
      <point x="45" y="-513"/>
    </contour>
    <contour>
      <point x="353" y="1112" type="curve" smooth="yes"/>
      <point x="470" y="1112"/>
      <point x="543" y="1177"/>
      <point x="543" y="1290" type="curve" smooth="yes"/>
      <point x="543" y="1401"/>
      <point x="470" y="1472"/>
      <point x="353" y="1472" type="curve" smooth="yes"/>
      <point x="236" y="1472"/>
      <point x="161" y="1401"/>
      <point x="161" y="1290" type="curve" smooth="yes"/>
      <point x="161" y="1177"/>
      <point x="236" y="1112"/>
    </contour>
  </outline>
</glyph>
<glyph name="k" format="2">
  <advance width="1241.8"/>
  <unicode hex="006B"/>
  <outline>
    <contour>
      <point x="169" y="0" type="line"/>
      <point x="489" y="0" type="line"/>
      <point x="489" y="1380" type="line"/>
      <point x="169" y="1380" type="line"/>
    </contour>
    <contour>
      <point x="449" y="659" type="line"/>
      <point x="449" y="333" type="line"/>
      <point x="1216" y="985" type="line"/>
      <point x="789" y="985" type="line"/>
    </contour>
    <contour>
      <point x="854" y="0" type="line"/>
      <point x="1242" y="0" type="line"/>
      <point x="734" y="714" type="line"/>
      <point x="441" y="633" type="line"/>
    </contour>
  </outline>
</glyph>
<glyph name="l" format="2">
  <advance width="660.45"/>
  <unicode hex="006C"/>
  <outline>
    <contour>
      <point x="169" y="0" type="line"/>
      <point x="489" y="0" type="line"/>
      <point x="489" y="1380" type="line"/>
      <point x="169" y="1380" type="line"/>
    </contour>
  </outline>
</glyph>
<glyph name="m" format="2">
  <advance width="1926.35"/>
  <unicode hex="006D"/>
  <outline>
    <contour>
      <point x="1460" y="0" type="line"/>
      <point x="1784" y="0" type="line"/>
      <point x="1784" y="574" type="line" smooth="yes"/>
      <point x="1784" y="832"/>
      <point x="1671" y="1017"/>
      <point x="1420" y="1017" type="curve" smooth="yes"/>
      <point x="1202" y="1017"/>
      <point x="1017" y="886"/>
      <point x="1017" y="415" type="curve"/>
      <point x="1143" y="415" type="line"/>
      <point x="1143" y="643"/>
      <point x="1220" y="727"/>
      <point x="1329" y="727" type="curve" smooth="yes"/>
      <point x="1403" y="727"/>
      <point x="1460" y="678"/>
      <point x="1460" y="574" type="curve" smooth="yes"/>
    </contour>
    <contour>
      <point x="169" y="0" type="line"/>
      <point x="489" y="0" type="line"/>
      <point x="489" y="415" type="line" smooth="yes"/>
      <point x="489" y="641"/>
      <point x="581" y="727"/>
      <point x="691" y="727" type="curve" smooth="yes"/>
      <point x="763" y="727"/>
      <point x="821" y="678"/>
      <point x="821" y="574" type="curve" smooth="yes"/>
      <point x="821" y="0" type="line"/>
      <point x="1143" y="0" type="line"/>
      <point x="1143" y="574" type="line" smooth="yes"/>
      <point x="1143" y="832"/>
      <point x="1033" y="1017"/>
      <point x="779" y="1017" type="curve" smooth="yes"/>
      <point x="659" y="1017"/>
      <point x="553" y="964"/>
      <point x="485" y="846" type="curve"/>
      <point x="451" y="985" type="line"/>
      <point x="169" y="985" type="line"/>
    </contour>
  </outline>
</glyph>
<glyph name="n" format="2">
  <advance width="1286.95"/>
  <unicode hex="006E"/>
  <anchor x="647" y="1094" name="above"/>
  <outline>
    <contour>
      <point x="821" y="0" type="line"/>
      <point x="1143" y="0" type="line"/>
      <point x="1143" y="574" type="line" smooth="yes"/>
      <point x="1143" y="832"/>
      <point x="1033" y="1017"/>
      <point x="779" y="1017" type="curve" smooth="yes"/>
      <point x="557" y="1017"/>
      <point x="392" y="839"/>
      <point x="392" y="415" type="curve"/>
      <point x="489" y="415" type="line"/>
      <point x="489" y="641"/>
      <point x="581" y="727"/>
      <point x="691" y="727" type="curve" smooth="yes"/>
      <point x="763" y="727"/>
      <point x="821" y="678"/>
      <point x="821" y="574" type="curve" smooth="yes"/>
    </contour>
    <contour>
      <point x="169" y="0" type="line"/>
      <point x="489" y="0" type="line"/>
      <point x="489" y="822" type="line"/>
      <point x="451" y="985" type="line"/>
      <point x="169" y="985" type="line"/>
    </contour>
  </outline>
</glyph>
<glyph name="o" format="2">
  <advance width="1172.95"/>
  <unicode hex="006F"/>
  <anchor x="589" y="1094" name="above"/>
  <outline>
    <contour>
      <point x="589" y="-32" type="curve" smooth="yes"/>
      <point x="857" y="-32"/>
      <point x="1086" y="134"/>
      <point x="1086" y="490" type="curve" smooth="yes"/>
      <point x="1086" y="857"/>
      <point x="857" y="1017"/>
      <point x="589" y="1017" type="curve" smooth="yes"/>
      <point x="315" y="1017"/>
      <point x="86" y="857"/>
      <point x="86" y="490" type="curve" smooth="yes"/>
      <point x="86" y="134"/>
      <point x="315" y="-32"/>
    </contour>
    <contour>
      <point x="577" y="247" type="curve" smooth="yes"/>
      <point x="485" y="247"/>
      <point x="405" y="313"/>
      <point x="405" y="490" type="curve" smooth="yes"/>
      <point x="405" y="673"/>
      <point x="508" y="739"/>
      <point x="601" y="739" type="curve" smooth="yes"/>
      <point x="693" y="739"/>
      <point x="768" y="673"/>
      <point x="768" y="490" type="curve" smooth="yes"/>
      <point x="768" y="313"/>
      <point x="668" y="247"/>
    </contour>
  </outline>
</glyph>
<glyph name="p" format="2">
  <advance width="1273.55"/>
  <unicode hex="0070"/>
  <outline>
    <contour>
      <point x="710" y="-32" type="curve" smooth="yes"/>
      <point x="960" y="-32"/>
      <point x="1189" y="160"/>
      <point x="1189" y="492" type="curve" smooth="yes"/>
      <point x="1189" y="825"/>
      <point x="962" y="1017"/>
      <point x="726" y="1017" type="curve" smooth="yes"/>
      <point x="547" y="1017"/>
      <point x="382" y="891"/>
      <point x="382" y="556" type="curve"/>
      <point x="489" y="556" type="line"/>
      <point x="489" y="660"/>
      <point x="562" y="727"/>
      <point x="665" y="727" type="curve" smooth="yes"/>
      <point x="790" y="727"/>
      <point x="869" y="634"/>
      <point x="869" y="492" type="curve" smooth="yes"/>
      <point x="869" y="324"/>
      <point x="750" y="260"/>
      <point x="659" y="260" type="curve" smooth="yes"/>
      <point x="566" y="260"/>
      <point x="489" y="314"/>
      <point x="489" y="394" type="curve"/>
      <point x="382" y="394" type="line"/>
      <point x="382" y="95"/>
      <point x="492" y="-32"/>
    </contour>
    <contour>
      <point x="169" y="-478" type="line"/>
      <point x="489" y="-478" type="line"/>
      <point x="489" y="728" type="line"/>
      <point x="430" y="985" type="line"/>
      <point x="169" y="985" type="line"/>
    </contour>
  </outline>
</glyph>
<glyph name="q" format="2">
  <advance width="1273.55"/>
  <unicode hex="0071"/>
  <outline>
    <contour>
      <point x="563" y="-32" type="curve" smooth="yes"/>
      <point x="783" y="-32"/>
      <point x="827" y="146"/>
      <point x="827" y="394" type="curve"/>
      <point x="781" y="394" type="line"/>
      <point x="781" y="317"/>
      <point x="703" y="260"/>
      <point x="616" y="260" type="curve" smooth="yes"/>
      <point x="523" y="260"/>
      <point x="405" y="324"/>
      <point x="405" y="492" type="curve" smooth="yes"/>
      <point x="405" y="634"/>
      <point x="482" y="727"/>
      <point x="610" y="727" type="curve" smooth="yes"/>
      <point x="713" y="727"/>
      <point x="781" y="660"/>
      <point x="781" y="556" type="curve"/>
      <point x="890" y="556" type="line"/>
      <point x="890" y="891"/>
      <point x="724" y="1017"/>
      <point x="544" y="1017" type="curve" smooth="yes"/>
      <point x="310" y="1017"/>
      <point x="86" y="825"/>
      <point x="86" y="492" type="curve" smooth="yes"/>
      <point x="86" y="160"/>
      <point x="314" y="-32"/>
    </contour>
    <contour>
      <point x="1140" y="-513" type="curve"/>
      <point x="1225" y="-286" type="line"/>
      <point x="1133" y="-260"/>
      <point x="1103" y="-237"/>
      <point x="1103" y="-137" type="curve" smooth="yes"/>
      <point x="1103" y="985" type="line"/>
      <point x="903" y="985" type="line"/>
      <point x="781" y="728" type="line"/>
      <point x="781" y="-111" type="line" smooth="yes"/>
      <point x="781" y="-332"/>
      <point x="884" y="-454"/>
    </contour>
  </outline>
</glyph>
<glyph name="r" format="2">
  <advance width="850.1"/>
  <unicode hex="0072"/>
  <outline>
    <contour>
      <point x="169" y="0" type="line"/>
      <point x="489" y="0" type="line"/>
      <point x="489" y="991" type="line"/>
      <point x="169" y="991" type="line"/>
    </contour>
    <contour>
      <point x="421" y="420" type="curve"/>
      <point x="489" y="420" type="line"/>
      <point x="489" y="609"/>
      <point x="584" y="681"/>
      <point x="725" y="681" type="curve" smooth="yes"/>
      <point x="755" y="681"/>
      <point x="791" y="679"/>
      <point x="825" y="675" type="curve"/>
      <point x="822" y="997" type="line"/>
      <point x="803" y="1001"/>
      <point x="781" y="1003"/>
      <point x="760" y="1003" type="curve" smooth="yes"/>
      <point x="598" y="1003"/>
      <point x="421" y="821"/>
    </contour>
  </outline>
</glyph>
<glyph name="s" format="2">
  <advance width="1059.2"/>
  <unicode hex="0073"/>
  <outline>
    <contour>
      <point x="550" y="-32" type="curve" smooth="yes"/>
      <point x="798" y="-32"/>
      <point x="983" y="124"/>
      <point x="983" y="289" type="curve" smooth="yes"/>
      <point x="983" y="409"/>
      <point x="901" y="485"/>
      <point x="766" y="539" type="curve" smooth="yes"/>
      <point x="494" y="648" type="line" smooth="yes"/>
      <point x="448" y="664"/>
      <point x="431" y="681"/>
      <point x="431" y="708" type="curve" smooth="yes"/>
      <point x="431" y="745"/>
      <point x="474" y="770"/>
      <point x="543" y="770" type="curve" smooth="yes"/>
      <point x="627" y="770"/>
      <point x="660" y="734"/>
      <point x="660" y="691" type="curve"/>
      <point x="953" y="691" type="line"/>
      <point x="951" y="880"/>
      <point x="805" y="1017"/>
      <point x="543" y="1017" type="curve" smooth="yes"/>
      <point x="263" y="1017"/>
      <point x="91" y="899"/>
      <point x="91" y="724" type="curve" smooth="yes"/>
      <point x="91" y="600"/>
      <point x="170" y="510"/>
      <point x="312" y="452" type="curve" smooth="yes"/>
      <point x="551" y="359" type="line" smooth="yes"/>
      <point x="601" y="339"/>
      <point x="625" y="322"/>
      <point x="625" y="289" type="curve" smooth="yes"/>
      <point x="625" y="250"/>
      <point x="586" y="217"/>
      <point x="507" y="217" type="curve" smooth="yes"/>
      <point x="419" y="217"/>
      <point x="364" y="240"/>
      <point x="362" y="309" type="curve"/>
      <point x="73" y="309" type="line"/>
      <point x="71" y="79"/>
      <point x="268" y="-32"/>
    </contour>
  </outline>
</glyph>
<glyph name="t" format="2">
  <advance width="827.85"/>
  <unicode hex="0074"/>
  <outline>
    <contour>
      <point x="533" y="-32" type="curve" smooth="yes"/>
      <point x="617" y="-32"/>
      <point x="687" y="-8"/>
      <point x="768" y="22" type="curve"/>
      <point x="721" y="245" type="line"/>
      <point x="665" y="225"/>
      <point x="625" y="217"/>
      <point x="588" y="217" type="curve" smooth="yes"/>
      <point x="531" y="217"/>
      <point x="499" y="248"/>
      <point x="499" y="307" type="curve" smooth="yes"/>
      <point x="499" y="1234" type="line"/>
      <point x="177" y="1234" type="line"/>
      <point x="177" y="295" type="line" smooth="yes"/>
      <point x="177" y="66"/>
      <point x="344" y="-32"/>
    </contour>
    <contour>
      <point x="60" y="778" type="line"/>
      <point x="723" y="778" type="line"/>
      <point x="723" y="985" type="line"/>
      <point x="60" y="985" type="line"/>
    </contour>
  </outline>
</glyph>
<glyph name="u" format="2">
  <advance width="1299.15"/>
  <unicode hex="0075"/>
  <anchor x="651" y="1094" name="above"/>
  <outline>
    <contour>
      <point x="811" y="991" type="line"/>
      <point x="811" y="0" type="line"/>
      <point x="1131" y="0" type="line"/>
      <point x="1131" y="991" type="line"/>
    </contour>
    <contour>
      <point x="158" y="991" type="line"/>
      <point x="158" y="358" type="line" smooth="yes"/>
      <point x="158" y="71"/>
      <point x="339" y="-18"/>
      <point x="538" y="-18" type="curve" smooth="yes"/>
      <point x="733" y="-18"/>
      <point x="881" y="137"/>
      <point x="881" y="529" type="curve"/>
      <point x="811" y="529" type="line"/>
      <point x="811" y="323"/>
      <point x="699" y="262"/>
      <point x="601" y="262" type="curve" smooth="yes"/>
      <point x="529" y="262"/>
      <point x="478" y="304"/>
      <point x="478" y="395" type="curve" smooth="yes"/>
      <point x="478" y="991" type="line"/>
    </contour>
  </outline>
</glyph>
<glyph name="v" format="2">
  <advance width="1072.65"/>
  <unicode hex="0076"/>
  <outline>
    <contour>
      <point x="11" y="985" type="line"/>
      <point x="352" y="0" type="line"/>
      <point x="719" y="0" type="line"/>
      <point x="1060" y="985" type="line"/>
      <point x="690" y="985" type="line"/>
      <point x="529" y="273" type="line"/>
      <point x="543" y="273" type="line"/>
      <point x="382" y="985" type="line"/>
    </contour>
  </outline>
</glyph>
<glyph name="w" format="2">
  <advance width="1586.35"/>
  <unicode hex="0077"/>
  <outline>
    <contour>
      <point x="11" y="985" type="line"/>
      <point x="340" y="0" type="line"/>
      <point x="660" y="0" type="line"/>
      <point x="816" y="579" type="line"/>
      <point x="767" y="579" type="line"/>
      <point x="930" y="0" type="line"/>
      <point x="1246" y="0" type="line"/>
      <point x="1572" y="985" type="line"/>
      <point x="1252" y="985" type="line"/>
      <point x="1078" y="312" type="line"/>
      <point x="1108" y="312" type="line"/>
      <point x="950" y="926" type="line"/>
      <point x="648" y="926" type="line"/>
      <point x="492" y="314" type="line"/>
      <point x="520" y="314" type="line"/>
      <point x="346" y="985" type="line"/>
    </contour>
  </outline>
</glyph>
<glyph name="x" format="2">
  <advance width="1195.2"/>
  <unicode hex="0078"/>
  <outline>
    <contour>
      <point x="11" y="0" type="line"/>
      <point x="406" y="0" type="line"/>
      <point x="586" y="257" type="line"/>
      <point x="794" y="0" type="line"/>
      <point x="1185" y="0" type="line"/>
      <point x="795" y="490" type="line"/>
      <point x="1183" y="991" type="line"/>
      <point x="792" y="991" type="line"/>
      <point x="606" y="731" type="line"/>
      <point x="406" y="991" type="line"/>
      <point x="11" y="991" type="line"/>
      <point x="406" y="490" type="line"/>
    </contour>
  </outline>
</glyph>
<glyph name="y" format="2">
  <advance width="1086.8"/>
  <unicode hex="0079"/>
  <outline>
    <contour>
      <point x="32" y="985" type="line"/>
      <point x="420" y="0" type="line"/>
      <point x="388" y="-92" type="line" smooth="yes"/>
      <point x="354" y="-201"/>
      <point x="294" y="-233"/>
      <point x="227" y="-233" type="curve" smooth="yes"/>
      <point x="159" y="-233"/>
      <point x="87" y="-215"/>
      <point x="13" y="-180" type="curve"/>
      <point x="13" y="-455" type="line"/>
      <point x="113" y="-497"/>
      <point x="214" y="-513"/>
      <point x="314" y="-513" type="curve" smooth="yes"/>
      <point x="478" y="-513"/>
      <point x="599" y="-429"/>
      <point x="692" y="-159" type="curve" smooth="yes"/>
      <point x="1076" y="985" type="line"/>
      <point x="752" y="985" type="line"/>
      <point x="551" y="280" type="line"/>
      <point x="600" y="280" type="line"/>
      <point x="398" y="985" type="line"/>
    </contour>
  </outline>
</glyph>
<glyph name="z" format="2">
  <advance width="1033.05"/>
  <unicode hex="007A"/>
  <outline>
    <contour>
      <point x="122" y="0" type="line"/>
      <point x="912" y="0" type="line"/>
      <point x="912" y="261" type="line"/>
      <point x="495" y="261" type="line"/>
      <point x="912" y="727" type="line"/>
      <point x="912" y="985" type="line"/>
      <point x="122" y="985" type="line"/>
      <point x="122" y="727" type="line"/>
      <point x="563" y="727" type="line"/>
      <point x="122" y="261" type="line"/>
    </contour>
  </outline>
</glyph>
<glyph name="braceleft" format="2">
  <advance width="872.3"/>
  <unicode hex="007B"/>
  <outline>
    <contour>
      <point x="873" y="-350" type="curve"/>
      <point x="873" y="-56" type="line"/>
      <point x="677" y="-56"/>
      <point x="578" y="11"/>
      <point x="578" y="194" type="curve" smooth="yes"/>
      <point x="578" y="392" type="line" smooth="yes"/>
      <point x="578" y="524"/>
      <point x="507" y="619"/>
      <point x="417" y="663" type="curve"/>
      <point x="417" y="678" type="line"/>
      <point x="507" y="722"/>
      <point x="578" y="817"/>
      <point x="578" y="949" type="curve" smooth="yes"/>
      <point x="578" y="1147" type="line" smooth="yes"/>
      <point x="578" y="1330"/>
      <point x="677" y="1397"/>
      <point x="873" y="1397" type="curve"/>
      <point x="873" y="1687" type="line"/>
      <point x="452" y="1687"/>
      <point x="260" y="1470"/>
      <point x="260" y="1153" type="curve" smooth="yes"/>
      <point x="260" y="969" type="line" smooth="yes"/>
      <point x="260" y="861"/>
      <point x="252" y="836"/>
      <point x="200" y="836" type="curve" smooth="yes"/>
      <point x="134" y="836" type="line"/>
      <point x="134" y="507" type="line"/>
      <point x="200" y="507" type="line" smooth="yes"/>
      <point x="252" y="507"/>
      <point x="260" y="478"/>
      <point x="260" y="374" type="curve" smooth="yes"/>
      <point x="260" y="192" type="line" smooth="yes"/>
      <point x="260" y="-127"/>
      <point x="452" y="-350"/>
    </contour>
  </outline>
</glyph>
<glyph name="bar" format="2">
  <advance width="660.45"/>
  <unicode hex="007C"/>
  <outline>
    <contour>
      <point x="169" y="-244" type="line"/>
      <point x="489" y="-244" type="line"/>
      <point x="489" y="1582" type="line"/>
      <point x="169" y="1582" type="line"/>
    </contour>
  </outline>
</glyph>
<glyph name="asciitilde" format="2">
  <advance width="1254.5"/>
  <unicode hex="007E"/>
  <anchor x="616" y="293" name="_above"/>
  <outline>
    <contour>
      <point x="290" y="368" type="line"/>
      <point x="322" y="456"/>
      <point x="364" y="494"/>
      <point x="423" y="494" type="curve" smooth="yes"/>
      <point x="465" y="494"/>
      <point x="509" y="476"/>
      <point x="596" y="449" type="curve" smooth="yes"/>
      <point x="692" y="408"/>
      <point x="759" y="393"/>
      <point x="807" y="393" type="curve" smooth="yes"/>
      <point x="958" y="393"/>
      <point x="1071" y="498"/>
      <point x="1131" y="693" type="curve"/>
      <point x="961" y="800" type="line"/>
      <point x="931" y="732"/>
      <point x="887" y="694"/>
      <point x="833" y="694" type="curve" smooth="yes"/>
      <point x="791" y="694"/>
      <point x="737" y="712"/>
      <point x="655" y="744" type="curve" smooth="yes"/>
      <point x="562" y="780"/>
      <point x="491" y="800"/>
      <point x="422" y="800" type="curve" smooth="yes"/>
      <point x="255" y="800"/>
      <point x="171" y="661"/>
      <point x="122" y="459" type="curve"/>
    </contour>
  </outline>
</glyph>
<glyph name="cent" format="2">
  <advance width="1090.6"/>
  <unicode hex="00A2"/>
  <outline>
    <contour>
      <point x="433" y="-222" type="line"/>
      <point x="690" y="-222" type="line"/>
      <point x="690" y="67" type="line"/>
      <point x="433" y="67" type="line"/>
    </contour>
    <contour>
      <point x="433" y="938" type="line"/>
      <point x="690" y="938" type="line"/>
      <point x="690" y="1208" type="line"/>
      <point x="433" y="1208" type="line"/>
    </contour>
    <component base="c"/>
  </outline>
</glyph>
<glyph name="sterling" format="2">
  <advance width="1280.7"/>
  <unicode hex="00A3"/>
  <outline>
    <contour>
      <point x="121" y="201" type="line"/>
      <point x="449" y="201"/>
      <point x="562" y="295"/>
      <point x="562" y="484" type="curve" smooth="yes"/>
      <point x="562" y="913" type="line" smooth="yes"/>
      <point x="562" y="1027"/>
      <point x="617" y="1083"/>
      <point x="692" y="1083" type="curve" smooth="yes"/>
      <point x="761" y="1083"/>
      <point x="798" y="1037"/>
      <point x="804" y="970" type="curve"/>
      <point x="1118" y="970" type="line"/>
      <point x="1086" y="1238"/>
      <point x="948" y="1372"/>
      <point x="692" y="1372" type="curve" smooth="yes"/>
      <point x="444" y="1372"/>
      <point x="242" y="1231"/>
      <point x="242" y="913" type="curve" smooth="yes"/>
      <point x="242" y="460" type="line" smooth="yes"/>
      <point x="242" y="346"/>
      <point x="214" y="292"/>
      <point x="121" y="292" type="curve"/>
    </contour>
    <contour>
      <point x="48" y="0" type="line"/>
      <point x="669" y="0" type="line" smooth="yes"/>
      <point x="1061" y="0"/>
      <point x="1208" y="155"/>
      <point x="1208" y="433" type="curve"/>
      <point x="857" y="433" type="line"/>
      <point x="847" y="338"/>
      <point x="802" y="292"/>
      <point x="665" y="292" type="curve" smooth="yes"/>
      <point x="48" y="292" type="line"/>
    </contour>
    <contour>
      <point x="93" y="591" type="line"/>
      <point x="883" y="591" type="line"/>
      <point x="883" y="800" type="line"/>
      <point x="93" y="800" type="line"/>
    </contour>
  </outline>
</glyph>
<glyph name="yen" format="2">
  <advance width="1252.8"/>
  <unicode hex="00A5"/>
  <outline>
    <contour>
      <point x="454" y="0" type="line"/>
      <point x="772" y="0" type="line"/>
      <point x="772" y="557" type="line"/>
      <point x="1242" y="1342" type="line"/>
      <point x="867" y="1342" type="line"/>
      <point x="592" y="839" type="line"/>
      <point x="644" y="839" type="line"/>
      <point x="386" y="1342" type="line"/>
      <point x="10" y="1342" type="line"/>
      <point x="454" y="557" type="line"/>
    </contour>
    <contour>
      <point x="257" y="136" type="line"/>
      <point x="978" y="136" type="line"/>
      <point x="978" y="304" type="line"/>
      <point x="257" y="304" type="line"/>
    </contour>
    <contour>
      <point x="257" y="367" type="line"/>
      <point x="978" y="367" type="line"/>
      <point x="978" y="535" type="line"/>
      <point x="257" y="535" type="line"/>
    </contour>
  </outline>
</glyph>
<glyph name="dieresis" format="2">
  <advance width="891.05"/>
  <unicode hex="00A8"/>
  <anchor x="443" y="1372" name="_above"/>
  <outline>
    <contour>
      <point x="662" y="1521" type="curve" smooth="yes"/>
      <point x="767" y="1521"/>
      <point x="842" y="1592"/>
      <point x="842" y="1689" type="curve" smooth="yes"/>
      <point x="842" y="1786"/>
      <point x="767" y="1856"/>
      <point x="662" y="1856" type="curve" smooth="yes"/>
      <point x="563" y="1856"/>
      <point x="485" y="1786"/>
      <point x="485" y="1689" type="curve" smooth="yes"/>
      <point x="485" y="1592"/>
      <point x="563" y="1521"/>
    </contour>
    <contour>
      <point x="226" y="1521" type="curve" smooth="yes"/>
      <point x="331" y="1521"/>
      <point x="406" y="1592"/>
      <point x="406" y="1687" type="curve" smooth="yes"/>
      <point x="406" y="1786"/>
      <point x="331" y="1854"/>
      <point x="226" y="1854" type="curve" smooth="yes"/>
      <point x="121" y="1854"/>
      <point x="48" y="1786"/>
      <point x="48" y="1687" type="curve" smooth="yes"/>
      <point x="48" y="1592"/>
      <point x="121" y="1521"/>
    </contour>
  </outline>
</glyph>
<glyph name="plusminus" format="2">
  <advance width="1050.85"/>
  <unicode hex="00B1"/>
  <outline>
    <contour>
      <point x="406" y="1148" type="line"/>
      <point x="406" y="870" type="line"/>
      <point x="159" y="870" type="line"/>
      <point x="159" y="669" type="line"/>
      <point x="406" y="669" type="line"/>
      <point x="406" y="395" type="line"/>
      <point x="646" y="395" type="line"/>
      <point x="646" y="669" type="line"/>
      <point x="893" y="669" type="line"/>
      <point x="893" y="870" type="line"/>
      <point x="646" y="870" type="line"/>
      <point x="646" y="1148" type="line"/>
    </contour>
    <contour>
      <point x="158" y="239" type="line"/>
      <point x="158" y="0" type="line"/>
      <point x="896" y="0" type="line"/>
      <point x="896" y="239" type="line"/>
    </contour>
  </outline>
</glyph>
<glyph name="acute" format="2">
  <advance width="803.3"/>
  <unicode hex="00B4"/>
  <anchor x="400" y="1381" name="_above"/>
  <outline>
    <contour>
      <point x="121" y="1424" type="line"/>
      <point x="754" y="1613" type="line"/>
      <point x="649" y="1886" type="line"/>
      <point x="46" y="1624" type="line"/>
    </contour>
  </outline>
</glyph>
<glyph name="multiply" format="2">
  <advance width="1122.65"/>
  <unicode hex="00D7"/>
  <outline>
    <contour>
      <point x="328" y="69" type="line"/>
      <point x="561" y="304" type="line"/>
      <point x="796" y="69" type="line"/>
      <point x="1025" y="298" type="line"/>
      <point x="788" y="531" type="line"/>
      <point x="1025" y="763" type="line"/>
      <point x="796" y="992" type="line"/>
      <point x="561" y="757" type="line"/>
      <point x="328" y="992" type="line"/>
      <point x="101" y="763" type="line"/>
      <point x="336" y="531" type="line"/>
      <point x="101" y="298" type="line"/>
    </contour>
  </outline>
</glyph>
<glyph name="divide" format="2">
  <advance width="1051.5"/>
  <unicode hex="00F7"/>
  <outline>
    <contour>
      <point x="96" y="436" type="line"/>
      <point x="954" y="436" type="line"/>
      <point x="954" y="719" type="line"/>
      <point x="96" y="719" type="line"/>
    </contour>
    <contour>
      <point x="522" y="13" type="curve" smooth="yes"/>
      <point x="623" y="13"/>
      <point x="700" y="82"/>
      <point x="700" y="177" type="curve" smooth="yes"/>
      <point x="700" y="271"/>
      <point x="623" y="338"/>
      <point x="522" y="338" type="curve" smooth="yes"/>
      <point x="423" y="338"/>
      <point x="351" y="271"/>
      <point x="351" y="177" type="curve" smooth="yes"/>
      <point x="351" y="82"/>
      <point x="423" y="13"/>
    </contour>
    <contour>
      <point x="522" y="807" type="curve" smooth="yes"/>
      <point x="623" y="807"/>
      <point x="700" y="873"/>
      <point x="700" y="970" type="curve" smooth="yes"/>
      <point x="700" y="1061"/>
      <point x="623" y="1134"/>
      <point x="522" y="1134" type="curve" smooth="yes"/>
      <point x="423" y="1134"/>
      <point x="351" y="1061"/>
      <point x="351" y="970" type="curve" smooth="yes"/>
      <point x="351" y="873"/>
      <point x="423" y="807"/>
    </contour>
  </outline>
</glyph>
<glyph name="dotlessi" format="2">
  <advance width="660.45"/>
  <unicode hex="0131"/>
  <anchor x="329" y="1094" name="above"/>
  <outline>
    <contour>
      <point x="169" y="0" type="line"/>
      <point x="489" y="0" type="line"/>
      <point x="489" y="991" type="line"/>
      <point x="169" y="991" type="line"/>
    </contour>
  </outline>
</glyph>
<glyph name="circumflex" format="2">
  <advance width="1054.95"/>
  <unicode hex="02C6"/>
  <anchor x="529" y="1381" name="_above"/>
  <outline>
    <contour>
      <point x="253" y="1422" type="line"/>
      <point x="529" y="1607" type="line"/>
      <point x="803" y="1422" type="line"/>
      <point x="1006" y="1582" type="line"/>
      <point x="529" y="1912" type="line"/>
      <point x="48" y="1582" type="line"/>
    </contour>
  </outline>
</glyph>
<glyph name="tilde" format="2">
  <advance width="850.95"/>
  <unicode hex="02DC"/>
  <anchor x="426" y="1381" name="_above"/>
  <outline>
    <contour>
      <point x="172" y="1489" type="line"/>
      <point x="214" y="1567"/>
      <point x="252" y="1585"/>
      <point x="298" y="1585" type="curve" smooth="yes"/>
      <point x="326" y="1585"/>
      <point x="352" y="1573"/>
      <point x="406" y="1543" type="curve" smooth="yes"/>
      <point x="471" y="1511"/>
      <point x="515" y="1489"/>
      <point x="572" y="1489" type="curve" smooth="yes"/>
      <point x="666" y="1489"/>
      <point x="777" y="1621"/>
      <point x="803" y="1784" type="curve"/>
      <point x="670" y="1871" type="line"/>
      <point x="642" y="1807"/>
      <point x="602" y="1779"/>
      <point x="564" y="1779" type="curve" smooth="yes"/>
      <point x="529" y="1779"/>
      <point x="497" y="1797"/>
      <point x="444" y="1823" type="curve" smooth="yes"/>
      <point x="384" y="1854"/>
      <point x="340" y="1871"/>
      <point x="298" y="1871" type="curve" smooth="yes"/>
      <point x="171" y="1871"/>
      <point x="78" y="1753"/>
      <point x="46" y="1562" type="curve"/>
    </contour>
  </outline>
</glyph>
<glyph name="endash" format="2">
  <advance width="1160.25"/>
  <unicode hex="2013"/>
  <outline>
    <contour>
      <point x="110" y="485" type="line"/>
      <point x="1049" y="485" type="line"/>
      <point x="1049" y="765" type="line"/>
      <point x="110" y="765" type="line"/>
    </contour>
  </outline>
</glyph>
<glyph name="emdash" format="2">
  <advance width="1627.35"/>
  <unicode hex="2014"/>
  <outline>
    <contour>
      <point x="110" y="485" type="line"/>
      <point x="1518" y="485" type="line"/>
      <point x="1518" y="765" type="line"/>
      <point x="110" y="765" type="line"/>
    </contour>
  </outline>
</glyph>
<glyph name="quoteleft" format="2">
  <advance width="664.85"/>
  <unicode hex="2018"/>
  <outline>
    <contour>
      <point x="317" y="674" type="curve" smooth="yes"/>
      <point x="440" y="674"/>
      <point x="531" y="755"/>
      <point x="531" y="862" type="curve" smooth="yes"/>
      <point x="531" y="955"/>
      <point x="454" y="1018"/>
      <point x="364" y="1036" type="curve"/>
      <point x="398" y="1122"/>
      <point x="487" y="1187"/>
      <point x="587" y="1233" type="curve"/>
      <point x="369" y="1359" type="line"/>
      <point x="200" y="1274"/>
      <point x="72" y="1111"/>
      <point x="72" y="951" type="curve" smooth="yes"/>
      <point x="72" y="799"/>
      <point x="165" y="674"/>
    </contour>
  </outline>
</glyph>
<glyph name="quoteright" format="2">
  <advance width="664.85"/>
  <unicode hex="2019"/>
  <outline>
    <contour>
      <point x="306" y="674" type="line"/>
      <point x="473" y="761"/>
      <point x="601" y="918"/>
      <point x="601" y="1082" type="curve" smooth="yes"/>
      <point x="601" y="1233"/>
      <point x="510" y="1359"/>
      <point x="360" y="1359" type="curve" smooth="yes"/>
      <point x="237" y="1359"/>
      <point x="146" y="1280"/>
      <point x="146" y="1173" type="curve" smooth="yes"/>
      <point x="146" y="1078"/>
      <point x="216" y="1017"/>
      <point x="313" y="999" type="curve"/>
      <point x="281" y="914"/>
      <point x="188" y="846"/>
      <point x="87" y="800" type="curve"/>
    </contour>
  </outline>
</glyph>
<glyph name="euro" format="2">
  <advance width="1310.05"/>
  <unicode hex="20AC"/>
  <outline>
    <contour>
      <point x="717" y="-32" type="curve" smooth="yes"/>
      <point x="1071" y="-32"/>
      <point x="1263" y="138"/>
      <point x="1263" y="449" type="curve"/>
      <point x="924" y="449" type="line"/>
      <point x="924" y="345"/>
      <point x="856" y="262"/>
      <point x="717" y="262" type="curve" smooth="yes"/>
      <point x="571" y="262"/>
      <point x="470" y="393"/>
      <point x="470" y="669" type="curve" smooth="yes"/>
      <point x="470" y="950"/>
      <point x="572" y="1081"/>
      <point x="717" y="1081" type="curve" smooth="yes"/>
      <point x="830" y="1081"/>
      <point x="893" y="997"/>
      <point x="924" y="882" type="curve"/>
      <point x="1265" y="941" type="line"/>
      <point x="1231" y="1196"/>
      <point x="1057" y="1372"/>
      <point x="717" y="1372" type="curve" smooth="yes"/>
      <point x="366" y="1372"/>
      <point x="126" y="1132"/>
      <point x="126" y="669" type="curve" smooth="yes"/>
      <point x="126" y="207"/>
      <point x="367" y="-32"/>
    </contour>
    <contour>
      <point x="27" y="457" type="line"/>
      <point x="765" y="457" type="line"/>
      <point x="765" y="629" type="line"/>
      <point x="27" y="629" type="line"/>
    </contour>
    <contour>
      <point x="27" y="696" type="line"/>
      <point x="765" y="696" type="line"/>
      <point x="765" y="868" type="line"/>
      <point x="27" y="868" type="line"/>
    </contour>
  </outline>
</glyph>
<glyph name="Rupee" format="2">
  <advance width="1257.35"/>
  <unicode hex="20B9"/>
  <outline>
    <contour>
      <point x="147" y="1172" type="line"/>
      <point x="1174" y="1172" type="line"/>
      <point x="1174" y="1342" type="line"/>
      <point x="147" y="1342" type="line"/>
    </contour>
    <contour>
      <point x="147" y="831" type="line"/>
      <point x="1174" y="831" type="line"/>
      <point x="1174" y="1003" type="line"/>
      <point x="147" y="1003" type="line"/>
    </contour>
    <contour>
      <point x="147" y="662" type="line"/>
      <point x="147" y="490" type="line"/>
      <point x="628" y="0" type="line"/>
      <point x="1073" y="0" type="line"/>
      <point x="425" y="662" type="line"/>
    </contour>
    <contour>
      <point x="250" y="662" type="line"/>
      <point x="250" y="490" type="line"/>
      <point x="302" y="490" type="line" smooth="yes"/>
      <point x="780" y="490"/>
      <point x="957" y="666"/>
      <point x="957" y="915" type="curve" smooth="yes"/>
      <point x="957" y="1144"/>
      <point x="728" y="1292"/>
      <point x="302" y="1292" type="curve" smooth="yes"/>
      <point x="250" y="1292" type="line"/>
      <point x="250" y="1172" type="line"/>
      <point x="302" y="1172" type="line" smooth="yes"/>
      <point x="523" y="1172"/>
      <point x="613" y="1061"/>
      <point x="613" y="915" type="curve" smooth="yes"/>
      <point x="613" y="769"/>
      <point x="523" y="662"/>
      <point x="302" y="662" type="curve" smooth="yes"/>
    </contour>
  </outline>
</glyph>
<glyph name="minus" format="2">
  <advance width="1121.65"/>
  <unicode hex="2212"/>
  <outline>
    <contour>
      <point x="36" y="632" type="line"/>
      <point x="36" y="350" type="line"/>
      <point x="1088" y="350" type="line"/>
      <point x="1088" y="632" type="line"/>
    </contour>
  </outline>
</glyph>
<glyph name="notequal" format="2">
  <advance width="1050.85"/>
  <unicode hex="2260"/>
  <outline>
    <contour>
      <point x="158" y="425" type="line"/>
      <point x="158" y="148" type="line"/>
      <point x="894" y="148" type="line"/>
      <point x="894" y="425" type="line"/>
    </contour>
    <contour>
      <point x="158" y="883" type="line"/>
      <point x="158" y="608" type="line"/>
      <point x="894" y="608" type="line"/>
      <point x="894" y="883" type="line"/>
    </contour>
    <contour>
      <point x="270" y="28" type="line"/>
      <point x="470" y="28" type="line"/>
      <point x="799" y="1031" type="line"/>
      <point x="603" y="1031" type="line"/>
    </contour>
  </outline>
</glyph>
<glyph name="lessequal" format="2">
  <advance width="1050.85"/>
  <unicode hex="2264"/>
  <outline>
    <contour>
      <point x="864" y="311" type="line"/>
      <point x="916" y="568" type="line"/>
      <point x="303" y="737" type="line"/>
      <point x="303" y="624" type="line"/>
      <point x="916" y="791" type="line"/>
      <point x="864" y="1052" type="line"/>
      <point x="135" y="798" type="line"/>
      <point x="135" y="561" type="line"/>
    </contour>
    <contour>
      <point x="142" y="0" type="line"/>
      <point x="878" y="0" type="line"/>
      <point x="878" y="239" type="line"/>
      <point x="142" y="239" type="line"/>
    </contour>
  </outline>
</glyph>
<glyph name="greaterequal" format="2">
  <advance width="1050.85"/>
  <unicode hex="2265"/>
  <outline>
    <contour>
      <point x="190" y="311" type="line"/>
      <point x="917" y="561" type="line"/>
      <point x="917" y="798" type="line"/>
      <point x="190" y="1052" type="line"/>
      <point x="136" y="791" type="line"/>
      <point x="749" y="624" type="line"/>
      <point x="749" y="737" type="line"/>
      <point x="136" y="568" type="line"/>
    </contour>
    <contour>
      <point x="174" y="0" type="line"/>
      <point x="910" y="0" type="line"/>
      <point x="910" y="239" type="line"/>
      <point x="174" y="239" type="line"/>
    </contour>
  </outline>
</glyph>
<glyph name="asciicircum.tf" format="2">
  <advance width="1200"/>
  <outline>
    <contour>
      <point x="24" y="379" type="line"/>
      <point x="376" y="379" type="line"/>
      <point x="663" y="1005" type="line"/>
      <point x="539" y="1005" type="line"/>
      <point x="824" y="379" type="line"/>
      <point x="1176" y="379" type="line"/>
      <point x="732" y="1242" type="line"/>
      <point x="470" y="1242" type="line"/>
    </contour>
  </outline>
</glyph>
<glyph name="asciitilde.tf" format="2">
  <advance width="1200"/>
  <outline>
    <contour>
      <point x="260" y="368" type="line"/>
      <point x="296" y="456"/>
      <point x="338" y="494"/>
      <point x="392" y="494" type="curve" smooth="yes"/>
      <point x="434" y="494"/>
      <point x="480" y="482"/>
      <point x="566" y="449" type="curve" smooth="yes"/>
      <point x="662" y="408"/>
      <point x="728" y="393"/>
      <point x="776" y="393" type="curve" smooth="yes"/>
      <point x="929" y="393"/>
      <point x="1042" y="498"/>
      <point x="1102" y="693" type="curve"/>
      <point x="930" y="800" type="line"/>
      <point x="898" y="732"/>
      <point x="854" y="694"/>
      <point x="804" y="694" type="curve" smooth="yes"/>
      <point x="762" y="694"/>
      <point x="706" y="712"/>
      <point x="622" y="744" type="curve" smooth="yes"/>
      <point x="531" y="780"/>
      <point x="460" y="800"/>
      <point x="392" y="800" type="curve" smooth="yes"/>
      <point x="224" y="800"/>
      <point x="140" y="661"/>
      <point x="92" y="459" type="curve"/>
    </contour>
  </outline>
</glyph>
<glyph name="asterisk.tf" format="2">
  <advance width="1200"/>
  <outline>
    <contour>
      <point x="458" y="809" type="line"/>
      <point x="602" y="1005" type="line"/>
      <point x="739" y="809" type="line"/>
      <point x="887" y="936" type="line"/>
      <point x="723" y="1085" type="line"/>
      <point x="927" y="1153" type="line"/>
      <point x="854" y="1331" type="line"/>
      <point x="671" y="1231" type="line"/>
      <point x="701" y="1450" type="line"/>
      <point x="499" y="1450" type="line"/>
      <point x="529" y="1231" type="line"/>
      <point x="346" y="1325" type="line"/>
      <point x="273" y="1149" type="line"/>
      <point x="483" y="1083" type="line"/>
      <point x="319" y="936" type="line"/>
    </contour>
  </outline>
</glyph>
<glyph name="comma.tf" format="2">
  <advance width="1200"/>
  <outline>
    <contour>
      <point x="574" y="-347" type="line"/>
      <point x="751" y="-263"/>
      <point x="871" y="-83"/>
      <point x="871" y="83" type="curve" smooth="yes"/>
      <point x="871" y="244"/>
      <point x="776" y="373"/>
      <point x="612" y="373" type="curve" smooth="yes"/>
      <point x="483" y="373"/>
      <point x="388" y="289"/>
      <point x="388" y="177" type="curve" smooth="yes"/>
      <point x="388" y="77"/>
      <point x="466" y="14"/>
      <point x="563" y="-10" type="curve"/>
      <point x="531" y="-95"/>
      <point x="432" y="-171"/>
      <point x="325" y="-224" type="curve"/>
    </contour>
  </outline>
</glyph>
<glyph name="currency.tf" format="2">
  <advance width="1200"/>
  <outline>
    <contour>
      <point x="600" y="206" type="curve" smooth="yes"/>
      <point x="845" y="206"/>
      <point x="1041" y="404"/>
      <point x="1041" y="646" type="curve" smooth="yes"/>
      <point x="1041" y="893"/>
      <point x="845" y="1091"/>
      <point x="600" y="1091" type="curve" smooth="yes"/>
      <point x="356" y="1091"/>
      <point x="157" y="893"/>
      <point x="157" y="646" type="curve" smooth="yes"/>
      <point x="157" y="404"/>
      <point x="356" y="206"/>
    </contour>
    <contour>
      <point x="600" y="483" type="curve" smooth="yes"/>
      <point x="509" y="483"/>
      <point x="434" y="558"/>
      <point x="434" y="646" type="curve" smooth="yes"/>
      <point x="434" y="741"/>
      <point x="509" y="814"/>
      <point x="600" y="814" type="curve" smooth="yes"/>
      <point x="693" y="814"/>
      <point x="766" y="741"/>
      <point x="766" y="646" type="curve" smooth="yes"/>
      <point x="766" y="558"/>
      <point x="693" y="483"/>
    </contour>
    <contour>
      <point x="835" y="761" type="line"/>
      <point x="1101" y="1031" type="line"/>
      <point x="980" y="1149" type="line"/>
      <point x="714" y="882" type="line"/>
    </contour>
    <contour>
      <point x="346" y="779" type="line"/>
      <point x="465" y="900" type="line"/>
      <point x="218" y="1149" type="line"/>
      <point x="99" y="1028" type="line"/>
    </contour>
    <contour>
      <point x="854" y="516" type="line"/>
      <point x="735" y="395" type="line"/>
      <point x="982" y="147" type="line"/>
      <point x="1101" y="266" type="line"/>
    </contour>
    <contour>
      <point x="346" y="516" type="line"/>
      <point x="99" y="266" type="line"/>
      <point x="218" y="147" type="line"/>
      <point x="465" y="395" type="line"/>
    </contour>
  </outline>
</glyph>
<glyph name="dollar.tf" format="2">
  <advance width="1200"/>
  <outline>
    <contour>
      <point x="616" y="-32" type="curve" smooth="yes"/>
      <point x="1014" y="-32"/>
      <point x="1191" y="162"/>
      <point x="1191" y="363" type="curve" smooth="yes"/>
      <point x="1191" y="531"/>
      <point x="1109" y="639"/>
      <point x="909" y="713" type="curve" smooth="yes"/>
      <point x="588" y="831" type="line"/>
      <point x="588" y="559" type="line"/>
      <point x="746" y="495" type="line" smooth="yes"/>
      <point x="799" y="473"/>
      <point x="832" y="422"/>
      <point x="832" y="371" type="curve" smooth="yes"/>
      <point x="832" y="304"/>
      <point x="773" y="259"/>
      <point x="633" y="259" type="curve" smooth="yes"/>
      <point x="434" y="259"/>
      <point x="321" y="305"/>
      <point x="321" y="438" type="curve"/>
      <point x="7" y="438" type="line"/>
      <point x="7" y="100"/>
      <point x="315" y="-32"/>
    </contour>
    <contour>
      <point x="517" y="-223" type="line"/>
      <point x="738" y="-223" type="line"/>
      <point x="738" y="1527" type="line"/>
      <point x="517" y="1527" type="line"/>
    </contour>
    <contour>
      <point x="592" y="551" type="line"/>
      <point x="592" y="829" type="line"/>
      <point x="480" y="881" type="line" smooth="yes"/>
      <point x="423" y="905"/>
      <point x="394" y="936"/>
      <point x="394" y="983" type="curve" smooth="yes"/>
      <point x="394" y="1054"/>
      <point x="471" y="1101"/>
      <point x="626" y="1101" type="curve" smooth="yes"/>
      <point x="756" y="1101"/>
      <point x="849" y="1015"/>
      <point x="859" y="927" type="curve"/>
      <point x="1173" y="927" type="line"/>
      <point x="1133" y="1205"/>
      <point x="962" y="1372"/>
      <point x="633" y="1372" type="curve" smooth="yes"/>
      <point x="255" y="1372"/>
      <point x="45" y="1220"/>
      <point x="45" y="993" type="curve" smooth="yes"/>
      <point x="45" y="799"/>
      <point x="182" y="692"/>
      <point x="400" y="618" type="curve" smooth="yes"/>
    </contour>
  </outline>
</glyph>
<glyph name="eight.prop" format="2">
  <advance width="1360.2"/>
  <outline>
    <contour>
      <point x="680" y="-32" type="curve" smooth="yes"/>
      <point x="1061" y="-32"/>
      <point x="1276" y="141"/>
      <point x="1276" y="376" type="curve" smooth="yes"/>
      <point x="1276" y="558"/>
      <point x="1166" y="642"/>
      <point x="969" y="720" type="curve" smooth="yes"/>
      <point x="550" y="885" type="line" smooth="yes"/>
      <point x="487" y="913"/>
      <point x="460" y="940"/>
      <point x="460" y="981" type="curve" smooth="yes"/>
      <point x="460" y="1044"/>
      <point x="559" y="1083"/>
      <point x="680" y="1083" type="curve" smooth="yes"/>
      <point x="810" y="1083"/>
      <point x="902" y="1038"/>
      <point x="902" y="951" type="curve" smooth="yes"/>
      <point x="902" y="874"/>
      <point x="796" y="827"/>
      <point x="696" y="827" type="curve"/>
      <point x="696" y="740" type="line"/>
      <point x="769" y="716"/>
      <point x="815" y="704"/>
      <point x="880" y="704" type="curve" smooth="yes"/>
      <point x="1096" y="704"/>
      <point x="1232" y="831"/>
      <point x="1232" y="975" type="curve" smooth="yes"/>
      <point x="1232" y="1208"/>
      <point x="982" y="1372"/>
      <point x="680" y="1372" type="curve" smooth="yes"/>
      <point x="328" y="1372"/>
      <point x="132" y="1234"/>
      <point x="132" y="995" type="curve" smooth="yes"/>
      <point x="132" y="790"/>
      <point x="314" y="670"/>
      <point x="457" y="614" type="curve" smooth="yes"/>
      <point x="852" y="461" type="line" smooth="yes"/>
      <point x="913" y="434"/>
      <point x="948" y="398"/>
      <point x="948" y="357" type="curve" smooth="yes"/>
      <point x="948" y="303"/>
      <point x="879" y="259"/>
      <point x="680" y="259" type="curve" smooth="yes"/>
      <point x="539" y="259"/>
      <point x="415" y="317"/>
      <point x="415" y="399" type="curve" smooth="yes"/>
      <point x="415" y="476"/>
      <point x="525" y="533"/>
      <point x="663" y="533" type="curve"/>
      <point x="663" y="603" type="line"/>
      <point x="576" y="626"/>
      <point x="526" y="642"/>
      <point x="451" y="642" type="curve" smooth="yes"/>
      <point x="247" y="642"/>
      <point x="85" y="540"/>
      <point x="85" y="363" type="curve" smooth="yes"/>
      <point x="85" y="138"/>
      <point x="306" y="-32"/>
    </contour>
  </outline>
</glyph>
<glyph name="eight.tf" format="2">
  <advance width="1200"/>
  <outline>
    <contour>
      <point x="598" y="-32" type="curve" smooth="yes"/>
      <point x="980" y="-32"/>
      <point x="1194" y="141"/>
      <point x="1194" y="376" type="curve" smooth="yes"/>
      <point x="1194" y="558"/>
      <point x="1082" y="642"/>
      <point x="886" y="720" type="curve" smooth="yes"/>
      <point x="468" y="885" type="line" smooth="yes"/>
      <point x="401" y="909"/>
      <point x="378" y="940"/>
      <point x="378" y="981" type="curve" smooth="yes"/>
      <point x="378" y="1044"/>
      <point x="477" y="1083"/>
      <point x="598" y="1083" type="curve" smooth="yes"/>
      <point x="729" y="1083"/>
      <point x="820" y="1038"/>
      <point x="820" y="951" type="curve" smooth="yes"/>
      <point x="820" y="874"/>
      <point x="715" y="827"/>
      <point x="612" y="827" type="curve"/>
      <point x="612" y="740" type="line"/>
      <point x="687" y="716"/>
      <point x="733" y="704"/>
      <point x="798" y="704" type="curve" smooth="yes"/>
      <point x="1016" y="704"/>
      <point x="1148" y="831"/>
      <point x="1148" y="975" type="curve" smooth="yes"/>
      <point x="1148" y="1208"/>
      <point x="901" y="1372"/>
      <point x="598" y="1372" type="curve" smooth="yes"/>
      <point x="247" y="1372"/>
      <point x="50" y="1234"/>
      <point x="50" y="995" type="curve" smooth="yes"/>
      <point x="50" y="790"/>
      <point x="233" y="666"/>
      <point x="375" y="614" type="curve" smooth="yes"/>
      <point x="768" y="461" type="line" smooth="yes"/>
      <point x="831" y="436"/>
      <point x="864" y="398"/>
      <point x="864" y="357" type="curve" smooth="yes"/>
      <point x="864" y="303"/>
      <point x="798" y="259"/>
      <point x="598" y="259" type="curve" smooth="yes"/>
      <point x="457" y="259"/>
      <point x="332" y="317"/>
      <point x="332" y="399" type="curve" smooth="yes"/>
      <point x="332" y="476"/>
      <point x="441" y="533"/>
      <point x="582" y="533" type="curve"/>
      <point x="582" y="603" type="line"/>
      <point x="495" y="626"/>
      <point x="442" y="642"/>
      <point x="369" y="642" type="curve" smooth="yes"/>
      <point x="164" y="642"/>
      <point x="4" y="540"/>
      <point x="4" y="363" type="curve" smooth="yes"/>
      <point x="4" y="138"/>
      <point x="222" y="-32"/>
    </contour>
  </outline>
</glyph>
<glyph name="equal.tf" format="2">
  <advance width="1200"/>
  <outline>
    <contour>
      <point x="233" y="425" type="line"/>
      <point x="233" y="148" type="line"/>
      <point x="967" y="148" type="line"/>
      <point x="967" y="425" type="line"/>
    </contour>
    <contour>
      <point x="233" y="883" type="line"/>
      <point x="233" y="608" type="line"/>
      <point x="967" y="608" type="line"/>
      <point x="967" y="883" type="line"/>
    </contour>
  </outline>
</glyph>
<glyph name="euro.tf" format="2">
  <advance width="1200"/>
  <outline>
    <contour>
      <point x="699" y="-32" type="curve" smooth="yes"/>
      <point x="991" y="-32"/>
      <point x="1177" y="138"/>
      <point x="1177" y="449" type="curve"/>
      <point x="839" y="449" type="line"/>
      <point x="839" y="345"/>
      <point x="789" y="262"/>
      <point x="670" y="262" type="curve" smooth="yes"/>
      <point x="533" y="262"/>
      <point x="464" y="389"/>
      <point x="464" y="646" type="curve" smooth="yes"/>
      <point x="464" y="962"/>
      <point x="566" y="1081"/>
      <point x="670" y="1081" type="curve" smooth="yes"/>
      <point x="765" y="1081"/>
      <point x="807" y="997"/>
      <point x="827" y="882" type="curve"/>
      <point x="1167" y="941" type="line"/>
      <point x="1146" y="1196"/>
      <point x="990" y="1372"/>
      <point x="670" y="1372" type="curve" smooth="yes"/>
      <point x="360" y="1372"/>
      <point x="120" y="1136"/>
      <point x="120" y="665" type="curve" smooth="yes"/>
      <point x="120" y="211"/>
      <point x="348" y="-32"/>
    </contour>
    <contour>
      <point x="21" y="457" type="line"/>
      <point x="681" y="457" type="line"/>
      <point x="681" y="629" type="line"/>
      <point x="21" y="629" type="line"/>
    </contour>
    <contour>
      <point x="21" y="696" type="line"/>
      <point x="681" y="696" type="line"/>
      <point x="681" y="868" type="line"/>
      <point x="21" y="868" type="line"/>
    </contour>
  </outline>
</glyph>
<glyph name="exclam.tf" format="2">
  <advance width="1200"/>
  <outline>
    <contour>
      <point x="454" y="528" type="line"/>
      <point x="740" y="528" type="line"/>
      <point x="772" y="1404" type="line"/>
      <point x="422" y="1404" type="line"/>
    </contour>
    <contour>
      <point x="598" y="-18" type="curve" smooth="yes"/>
      <point x="728" y="-18"/>
      <point x="816" y="67"/>
      <point x="816" y="188" type="curve" smooth="yes"/>
      <point x="816" y="304"/>
      <point x="728" y="393"/>
      <point x="598" y="393" type="curve" smooth="yes"/>
      <point x="471" y="393"/>
      <point x="384" y="304"/>
      <point x="384" y="188" type="curve" smooth="yes"/>
      <point x="384" y="67"/>
      <point x="471" y="-18"/>
    </contour>
  </outline>
</glyph>
<glyph name="five.prop" format="2">
  <advance width="1221.05"/>
  <outline>
    <contour>
      <point x="600" y="-249" type="curve" smooth="yes"/>
      <point x="902" y="-249"/>
      <point x="1139" y="-42"/>
      <point x="1139" y="251" type="curve" smooth="yes"/>
      <point x="1139" y="520"/>
      <point x="957" y="702"/>
      <point x="677" y="702" type="curve" smooth="yes"/>
      <point x="599" y="702"/>
      <point x="543" y="694"/>
      <point x="473" y="670" type="curve"/>
      <point x="487" y="648" type="line"/>
      <point x="521" y="1010" type="line"/>
      <point x="464" y="946" type="line"/>
      <point x="1063" y="946" type="line"/>
      <point x="1063" y="1236" type="line"/>
      <point x="223" y="1236" type="line"/>
      <point x="155" y="451" type="line"/>
      <point x="571" y="451" type="line" smooth="yes"/>
      <point x="744" y="451"/>
      <point x="823" y="378"/>
      <point x="823" y="251" type="curve" smooth="yes"/>
      <point x="823" y="120"/>
      <point x="726" y="43"/>
      <point x="610" y="43" type="curve" smooth="yes"/>
      <point x="495" y="43"/>
      <point x="415" y="103"/>
      <point x="415" y="222" type="curve"/>
      <point x="97" y="222" type="line"/>
      <point x="97" y="-84"/>
      <point x="338" y="-249"/>
    </contour>
  </outline>
</glyph>
<glyph name="five.tf" format="2">
  <advance width="1200"/>
  <outline>
    <contour>
      <point x="598" y="-32" type="curve" smooth="yes"/>
      <point x="913" y="-32"/>
      <point x="1128" y="187"/>
      <point x="1128" y="459" type="curve" smooth="yes"/>
      <point x="1128" y="703"/>
      <point x="956" y="850"/>
      <point x="690" y="850" type="curve" smooth="yes"/>
      <point x="626" y="850"/>
      <point x="518" y="840"/>
      <point x="454" y="826" type="curve"/>
      <point x="474" y="800" type="line"/>
      <point x="508" y="1131" type="line"/>
      <point x="447" y="1048" type="line"/>
      <point x="1052" y="1048" type="line"/>
      <point x="1052" y="1342" type="line"/>
      <point x="188" y="1342" type="line"/>
      <point x="124" y="615" type="line"/>
      <point x="580" y="615" type="line" smooth="yes"/>
      <point x="731" y="615"/>
      <point x="802" y="560"/>
      <point x="802" y="459" type="curve" smooth="yes"/>
      <point x="802" y="347"/>
      <point x="711" y="259"/>
      <point x="598" y="259" type="curve" smooth="yes"/>
      <point x="483" y="259"/>
      <point x="398" y="313"/>
      <point x="398" y="428" type="curve"/>
      <point x="72" y="428" type="line"/>
      <point x="80" y="137"/>
      <point x="274" y="-32"/>
    </contour>
  </outline>
</glyph>
<glyph name="four.prop" format="2">
  <advance width="1269.7"/>
  <outline>
    <contour>
      <point x="692" y="-222" type="line"/>
      <point x="1016" y="-222" type="line"/>
      <point x="1016" y="88" type="line"/>
      <point x="1246" y="88" type="line"/>
      <point x="1246" y="365" type="line"/>
      <point x="1016" y="365" type="line"/>
      <point x="1016" y="1209" type="line"/>
      <point x="694" y="1209" type="line"/>
      <point x="23" y="326" type="line"/>
      <point x="23" y="88" type="line"/>
      <point x="692" y="88" type="line"/>
    </contour>
    <contour>
      <point x="370" y="326" type="line"/>
      <point x="708" y="756" type="line"/>
      <point x="708" y="326" type="line"/>
    </contour>
  </outline>
</glyph>
<glyph name="four.tf" format="2">
  <advance width="1200"/>
  <outline>
    <contour>
      <point x="668" y="1352" type="line"/>
      <point x="20" y="508" type="line"/>
      <point x="20" y="269" type="line"/>
      <point x="778" y="269" type="line"/>
      <point x="668" y="358" type="line"/>
      <point x="668" y="0" type="line"/>
      <point x="985" y="0" type="line"/>
      <point x="985" y="358" type="line"/>
      <point x="916" y="269" type="line"/>
      <point x="1178" y="269" type="line"/>
      <point x="1178" y="508" type="line"/>
      <point x="914" y="508" type="line"/>
      <point x="985" y="455" type="line"/>
      <point x="985" y="1352" type="line"/>
    </contour>
    <contour>
      <point x="685" y="1005" type="line"/>
      <point x="685" y="417" type="line"/>
      <point x="794" y="508" type="line"/>
      <point x="310" y="508" type="line"/>
      <point x="322" y="437" type="line"/>
      <point x="761" y="1005" type="line"/>
    </contour>
  </outline>
</glyph>
<glyph name="greater.tf" format="2">
  <advance width="1200"/>
  <outline>
    <contour>
      <point x="352" y="31" type="line"/>
      <point x="1060" y="534" type="line"/>
      <point x="1060" y="826" type="line"/>
      <point x="352" y="1331" type="line"/>
      <point x="140" y="1088" type="line"/>
      <point x="827" y="611" type="line"/>
      <point x="827" y="749" type="line"/>
      <point x="140" y="272" type="line"/>
    </contour>
  </outline>
</glyph>
<glyph name="less.tf" format="2">
  <advance width="1200"/>
  <outline>
    <contour>
      <point x="846" y="1331" type="line"/>
      <point x="138" y="826" type="line"/>
      <point x="138" y="534" type="line"/>
      <point x="846" y="31" type="line"/>
      <point x="1060" y="272" type="line"/>
      <point x="371" y="749" type="line"/>
      <point x="371" y="611" type="line"/>
      <point x="1060" y="1088" type="line"/>
    </contour>
  </outline>
</glyph>
<glyph name="minus.tf" format="2">
  <advance width="1200"/>
  <outline>
    <contour>
      <point x="65" y="628" type="line"/>
      <point x="65" y="346" type="line"/>
      <point x="1135" y="346" type="line"/>
      <point x="1135" y="628" type="line"/>
    </contour>
  </outline>
</glyph>
<glyph name="nine.prop" format="2">
  <advance width="1279.95"/>
  <outline>
    <contour>
      <point x="607" y="-249" type="curve" smooth="yes"/>
      <point x="937" y="-249"/>
      <point x="1197" y="24"/>
      <point x="1197" y="495" type="curve" smooth="yes"/>
      <point x="1197" y="835"/>
      <point x="1009" y="1235"/>
      <point x="591" y="1235" type="curve" smooth="yes"/>
      <point x="292" y="1235"/>
      <point x="79" y="1034"/>
      <point x="79" y="778" type="curve" smooth="yes"/>
      <point x="79" y="523"/>
      <point x="281" y="341"/>
      <point x="540" y="341" type="curve" smooth="yes"/>
      <point x="701" y="341"/>
      <point x="843" y="436"/>
      <point x="876" y="632" type="curve"/>
      <point x="880" y="601"/>
      <point x="882" y="553"/>
      <point x="882" y="511" type="curve" smooth="yes"/>
      <point x="882" y="224"/>
      <point x="796" y="43"/>
      <point x="607" y="43" type="curve" smooth="yes"/>
      <point x="507" y="43"/>
      <point x="452" y="90"/>
      <point x="441" y="178" type="curve"/>
      <point x="105" y="178" type="line"/>
      <point x="105" y="-80"/>
      <point x="326" y="-249"/>
    </contour>
    <contour>
      <point x="595" y="594" type="curve" smooth="yes"/>
      <point x="474" y="594"/>
      <point x="409" y="675"/>
      <point x="409" y="778" type="curve" smooth="yes"/>
      <point x="409" y="870"/>
      <point x="472" y="958"/>
      <point x="591" y="958" type="curve" smooth="yes"/>
      <point x="714" y="958"/>
      <point x="781" y="870"/>
      <point x="781" y="778" type="curve" smooth="yes"/>
      <point x="781" y="673"/>
      <point x="716" y="594"/>
    </contour>
  </outline>
</glyph>
<glyph name="nine.tf" format="2">
  <advance width="1200"/>
  <outline>
    <contour>
      <point x="580" y="-32" type="curve" smooth="yes"/>
      <point x="957" y="-32"/>
      <point x="1158" y="250"/>
      <point x="1158" y="689" type="curve" smooth="yes"/>
      <point x="1158" y="1094"/>
      <point x="883" y="1372"/>
      <point x="552" y="1372" type="curve" smooth="yes"/>
      <point x="253" y="1372"/>
      <point x="42" y="1196"/>
      <point x="42" y="933" type="curve" smooth="yes"/>
      <point x="42" y="680"/>
      <point x="210" y="504"/>
      <point x="468" y="504" type="curve" smooth="yes"/>
      <point x="630" y="504"/>
      <point x="784" y="569"/>
      <point x="835" y="793" type="curve"/>
      <point x="838" y="766"/>
      <point x="841" y="734"/>
      <point x="841" y="707" type="curve" smooth="yes"/>
      <point x="841" y="443"/>
      <point x="771" y="259"/>
      <point x="568" y="259" type="curve" smooth="yes"/>
      <point x="482" y="259"/>
      <point x="400" y="312"/>
      <point x="392" y="397" type="curve"/>
      <point x="58" y="397" type="line"/>
      <point x="58" y="138"/>
      <point x="293" y="-32"/>
    </contour>
    <contour>
      <point x="558" y="757" type="curve" smooth="yes"/>
      <point x="455" y="757"/>
      <point x="368" y="814"/>
      <point x="368" y="915" type="curve" smooth="yes"/>
      <point x="368" y="1015"/>
      <point x="455" y="1079"/>
      <point x="552" y="1079" type="curve" smooth="yes"/>
      <point x="651" y="1079"/>
      <point x="740" y="1015"/>
      <point x="740" y="915" type="curve" smooth="yes"/>
      <point x="740" y="816"/>
      <point x="651" y="757"/>
    </contour>
  </outline>
</glyph>
<glyph name="numbersign.tf" format="2">
  <advance width="1200"/>
  <outline>
    <contour>
      <point x="158" y="109" type="line"/>
      <point x="460" y="109" type="line"/>
      <point x="483" y="293" type="line"/>
      <point x="636" y="293" type="line"/>
      <point x="612" y="109" type="line"/>
      <point x="914" y="109" type="line"/>
      <point x="936" y="293" type="line"/>
      <point x="1071" y="293" type="line"/>
      <point x="1091" y="501" type="line"/>
      <point x="960" y="501" type="line"/>
      <point x="990" y="771" type="line"/>
      <point x="1119" y="771" type="line"/>
      <point x="1143" y="978" type="line"/>
      <point x="1014" y="978" type="line"/>
      <point x="1038" y="1162" type="line"/>
      <point x="737" y="1162" type="line"/>
      <point x="717" y="978" type="line"/>
      <point x="562" y="978" type="line"/>
      <point x="586" y="1162" type="line"/>
      <point x="284" y="1162" type="line"/>
      <point x="260" y="978" type="line"/>
      <point x="127" y="978" type="line"/>
      <point x="105" y="771" type="line"/>
      <point x="236" y="771" type="line"/>
      <point x="206" y="501" type="line"/>
      <point x="75" y="501" type="line"/>
      <point x="57" y="293" type="line"/>
      <point x="182" y="293" type="line"/>
    </contour>
    <contour>
      <point x="508" y="501" type="line"/>
      <point x="538" y="771" type="line"/>
      <point x="692" y="771" type="line"/>
      <point x="661" y="501" type="line"/>
    </contour>
  </outline>
</glyph>
<glyph name="one.prop" format="2">
  <advance width="767.6"/>
  <outline>
    <contour>
      <point x="365" y="1207" type="line"/>
      <point x="256" y="1133"/>
      <point x="168" y="1107"/>
      <point x="71" y="1099" type="curve"/>
      <point x="71" y="795" type="line"/>
      <point x="137" y="795"/>
      <point x="201" y="801"/>
      <point x="277" y="824" type="curve"/>
      <point x="277" y="0" type="line"/>
      <point x="597" y="0" type="line"/>
      <point x="597" y="1207" type="line"/>
    </contour>
  </outline>
</glyph>
<glyph name="one.tf" format="2">
  <advance width="1200"/>
  <outline>
    <contour>
      <point x="207" y="0" type="line"/>
      <point x="1006" y="0" type="line"/>
      <point x="1006" y="241" type="line"/>
      <point x="675" y="241" type="line"/>
      <point x="766" y="152" type="line"/>
      <point x="766" y="1354" type="line"/>
      <point x="532" y="1354" type="line"/>
      <point x="425" y="1282"/>
      <point x="332" y="1252"/>
      <point x="240" y="1244" type="curve"/>
      <point x="240" y="940" type="line"/>
      <point x="324" y="940"/>
      <point x="404" y="956"/>
      <point x="519" y="991" type="curve"/>
      <point x="446" y="1058" type="line"/>
      <point x="446" y="152" type="line"/>
      <point x="535" y="241" type="line"/>
      <point x="207" y="241" type="line"/>
    </contour>
  </outline>
</glyph>
<glyph name="percent.tf" format="2">
  <advance width="1200"/>
  <outline>
    <contour>
      <point x="14" y="0" type="line"/>
      <point x="315" y="0" type="line"/>
      <point x="1184" y="1342" type="line"/>
      <point x="889" y="1342" type="line"/>
    </contour>
    <contour>
      <point x="922" y="-32" type="curve" smooth="yes"/>
      <point x="1054" y="-32"/>
      <point x="1191" y="35"/>
      <point x="1191" y="289" type="curve" smooth="yes"/>
      <point x="1191" y="542"/>
      <point x="1054" y="607"/>
      <point x="922" y="607" type="curve" smooth="yes"/>
      <point x="792" y="607"/>
      <point x="656" y="542"/>
      <point x="656" y="289" type="curve" smooth="yes"/>
      <point x="656" y="35"/>
      <point x="792" y="-32"/>
    </contour>
    <contour>
      <point x="922" y="166" type="curve" smooth="yes"/>
      <point x="889" y="166"/>
      <point x="860" y="183"/>
      <point x="860" y="289" type="curve" smooth="yes"/>
      <point x="860" y="390"/>
      <point x="889" y="413"/>
      <point x="922" y="413" type="curve" smooth="yes"/>
      <point x="951" y="413"/>
      <point x="982" y="390"/>
      <point x="982" y="289" type="curve" smooth="yes"/>
      <point x="982" y="183"/>
      <point x="951" y="166"/>
    </contour>
    <contour>
      <point x="276" y="731" type="curve" smooth="yes"/>
      <point x="408" y="731"/>
      <point x="542" y="800"/>
      <point x="542" y="1054" type="curve" smooth="yes"/>
      <point x="542" y="1305"/>
      <point x="408" y="1372"/>
      <point x="276" y="1372" type="curve" smooth="yes"/>
      <point x="144" y="1372"/>
      <point x="10" y="1305"/>
      <point x="10" y="1054" type="curve" smooth="yes"/>
      <point x="10" y="800"/>
      <point x="144" y="731"/>
    </contour>
    <contour>
      <point x="276" y="927" type="curve" smooth="yes"/>
      <point x="245" y="927"/>
      <point x="216" y="948"/>
      <point x="216" y="1054" type="curve" smooth="yes"/>
      <point x="216" y="1155"/>
      <point x="245" y="1174"/>
      <point x="276" y="1174" type="curve" smooth="yes"/>
      <point x="307" y="1174"/>
      <point x="338" y="1155"/>
      <point x="338" y="1054" type="curve" smooth="yes"/>
      <point x="338" y="948"/>
      <point x="307" y="927"/>
    </contour>
  </outline>
</glyph>
<glyph name="period.tf" format="2">
  <advance width="1200"/>
  <outline>
    <contour>
      <point x="598" y="-30" type="curve" smooth="yes"/>
      <point x="731" y="-30"/>
      <point x="828" y="61"/>
      <point x="828" y="188" type="curve" smooth="yes"/>
      <point x="828" y="311"/>
      <point x="731" y="404"/>
      <point x="598" y="404" type="curve" smooth="yes"/>
      <point x="463" y="404"/>
      <point x="372" y="311"/>
      <point x="372" y="188" type="curve" smooth="yes"/>
      <point x="372" y="61"/>
      <point x="463" y="-30"/>
    </contour>
  </outline>
</glyph>
<glyph name="plus.tf" format="2">
  <advance width="1200"/>
  <outline>
    <contour>
      <point x="440" y="982" type="line"/>
      <point x="440" y="632" type="line"/>
      <point x="77" y="632" type="line"/>
      <point x="77" y="350" type="line"/>
      <point x="440" y="350" type="line"/>
      <point x="440" y="0" type="line"/>
      <point x="760" y="0" type="line"/>
      <point x="760" y="350" type="line"/>
      <point x="1125" y="350" type="line"/>
      <point x="1125" y="632" type="line"/>
      <point x="760" y="632" type="line"/>
      <point x="760" y="982" type="line"/>
    </contour>
  </outline>
</glyph>
<glyph name="question.tf" format="2">
  <advance width="1200"/>
  <outline>
    <contour>
      <point x="406" y="459" type="line"/>
      <point x="729" y="459" type="line"/>
      <point x="729" y="494" type="line" smooth="yes"/>
      <point x="729" y="571"/>
      <point x="764" y="611"/>
      <point x="888" y="671" type="curve" smooth="yes"/>
      <point x="1034" y="736"/>
      <point x="1100" y="833"/>
      <point x="1100" y="975" type="curve" smooth="yes"/>
      <point x="1100" y="1204"/>
      <point x="907" y="1372"/>
      <point x="592" y="1372" type="curve" smooth="yes"/>
      <point x="280" y="1372"/>
      <point x="110" y="1199"/>
      <point x="96" y="927" type="curve"/>
      <point x="426" y="927" type="line"/>
      <point x="428" y="1015"/>
      <point x="491" y="1083"/>
      <point x="606" y="1083" type="curve" smooth="yes"/>
      <point x="692" y="1083"/>
      <point x="750" y="1037"/>
      <point x="750" y="975" type="curve" smooth="yes"/>
      <point x="750" y="924"/>
      <point x="726" y="888"/>
      <point x="609" y="830" type="curve" smooth="yes"/>
      <point x="471" y="769"/>
      <point x="406" y="703"/>
      <point x="406" y="529" type="curve" smooth="yes"/>
    </contour>
    <contour>
      <point x="577" y="-32" type="curve" smooth="yes"/>
      <point x="704" y="-32"/>
      <point x="797" y="55"/>
      <point x="797" y="170" type="curve" smooth="yes"/>
      <point x="797" y="289"/>
      <point x="704" y="374"/>
      <point x="577" y="374" type="curve" smooth="yes"/>
      <point x="451" y="374"/>
      <point x="362" y="289"/>
      <point x="362" y="170" type="curve" smooth="yes"/>
      <point x="362" y="55"/>
      <point x="451" y="-32"/>
    </contour>
  </outline>
</glyph>
<glyph name="seven.prop" format="2">
  <advance width="1053.8"/>
  <outline>
    <contour>
      <point x="48" y="1235" type="line"/>
      <point x="48" y="958" type="line"/>
      <point x="697" y="958" type="line"/>
      <point x="32" y="-221" type="line"/>
      <point x="421" y="-221" type="line"/>
      <point x="1019" y="958" type="line"/>
      <point x="1019" y="1235" type="line"/>
    </contour>
  </outline>
</glyph>
<glyph name="seven.tf" format="2">
  <advance width="1200"/>
  <outline>
    <contour>
      <point x="117" y="1342" type="line"/>
      <point x="117" y="1030" type="line"/>
      <point x="711" y="1030" type="line"/>
      <point x="125" y="0" type="line"/>
      <point x="559" y="0" type="line"/>
      <point x="1088" y="1030" type="line"/>
      <point x="1088" y="1342" type="line"/>
    </contour>
  </outline>
</glyph>
<glyph name="six.tf" format="2">
  <advance width="1200"/>
  <outline>
    <contour>
      <point x="645" y="-32" type="curve" smooth="yes"/>
      <point x="948" y="-32"/>
      <point x="1161" y="144"/>
      <point x="1161" y="405" type="curve" smooth="yes"/>
      <point x="1161" y="655"/>
      <point x="993" y="838"/>
      <point x="730" y="838" type="curve" smooth="yes"/>
      <point x="566" y="838"/>
      <point x="409" y="770"/>
      <point x="362" y="545" type="curve"/>
      <point x="360" y="573"/>
      <point x="358" y="602"/>
      <point x="358" y="631" type="curve" smooth="yes"/>
      <point x="358" y="908"/>
      <point x="474" y="1083"/>
      <point x="654" y="1083" type="curve" smooth="yes"/>
      <point x="747" y="1083"/>
      <point x="799" y="1031"/>
      <point x="807" y="944" type="curve"/>
      <point x="1143" y="944" type="line"/>
      <point x="1143" y="1204"/>
      <point x="936" y="1372"/>
      <point x="642" y="1372" type="curve" smooth="yes"/>
      <point x="294" y="1372"/>
      <point x="38" y="1118"/>
      <point x="38" y="647" type="curve" smooth="yes"/>
      <point x="38" y="248"/>
      <point x="289" y="-32"/>
    </contour>
    <contour>
      <point x="645" y="259" type="curve" smooth="yes"/>
      <point x="548" y="259"/>
      <point x="459" y="327"/>
      <point x="459" y="421" type="curve" smooth="yes"/>
      <point x="459" y="524"/>
      <point x="548" y="585"/>
      <point x="641" y="585" type="curve" smooth="yes"/>
      <point x="741" y="585"/>
      <point x="831" y="524"/>
      <point x="831" y="421" type="curve" smooth="yes"/>
      <point x="831" y="327"/>
      <point x="741" y="259"/>
    </contour>
  </outline>
</glyph>
<glyph name="slash.tf" format="2">
  <advance width="1200"/>
  <outline>
    <contour>
      <point x="176" y="-177" type="line"/>
      <point x="498" y="-177" type="line"/>
      <point x="1028" y="1519" type="line"/>
      <point x="702" y="1519" type="line"/>
    </contour>
  </outline>
</glyph>
<glyph name="sterling.tf" format="2">
  <advance width="1200"/>
  <outline>
    <contour>
      <point x="93" y="201" type="line"/>
      <point x="421" y="201"/>
      <point x="534" y="295"/>
      <point x="534" y="484" type="curve" smooth="yes"/>
      <point x="534" y="913" type="line" smooth="yes"/>
      <point x="534" y="1027"/>
      <point x="592" y="1083"/>
      <point x="664" y="1083" type="curve" smooth="yes"/>
      <point x="734" y="1083"/>
      <point x="771" y="1037"/>
      <point x="776" y="970" type="curve"/>
      <point x="1090" y="970" type="line"/>
      <point x="1058" y="1238"/>
      <point x="922" y="1372"/>
      <point x="664" y="1372" type="curve" smooth="yes"/>
      <point x="416" y="1372"/>
      <point x="214" y="1231"/>
      <point x="214" y="913" type="curve" smooth="yes"/>
      <point x="214" y="460" type="line" smooth="yes"/>
      <point x="214" y="346"/>
      <point x="187" y="292"/>
      <point x="93" y="292" type="curve"/>
    </contour>
    <contour>
      <point x="20" y="0" type="line"/>
      <point x="640" y="0" type="line" smooth="yes"/>
      <point x="1033" y="0"/>
      <point x="1180" y="155"/>
      <point x="1182" y="433" type="curve"/>
      <point x="827" y="433" type="line"/>
      <point x="822" y="338"/>
      <point x="776" y="292"/>
      <point x="637" y="292" type="curve" smooth="yes"/>
      <point x="20" y="292" type="line"/>
    </contour>
    <contour>
      <point x="67" y="591" type="line"/>
      <point x="855" y="591" type="line"/>
      <point x="855" y="800" type="line"/>
      <point x="67" y="800" type="line"/>
    </contour>
  </outline>
</glyph>
<glyph name="three.prop" format="2">
  <advance width="1234.75"/>
  <outline>
    <contour>
      <point x="578" y="-249" type="curve" smooth="yes"/>
      <point x="899" y="-249"/>
      <point x="1111" y="-58"/>
      <point x="1111" y="189" type="curve" smooth="yes"/>
      <point x="1111" y="355"/>
      <point x="1032" y="489"/>
      <point x="870" y="564" type="curve"/>
      <point x="998" y="620"/>
      <point x="1071" y="720"/>
      <point x="1071" y="858" type="curve" smooth="yes"/>
      <point x="1071" y="1071"/>
      <point x="887" y="1235"/>
      <point x="573" y="1235" type="curve" smooth="yes"/>
      <point x="263" y="1235"/>
      <point x="65" y="1117"/>
      <point x="39" y="815" type="curve"/>
      <point x="383" y="815" type="line"/>
      <point x="384" y="898"/>
      <point x="466" y="970"/>
      <point x="580" y="970" type="curve" smooth="yes"/>
      <point x="684" y="970"/>
      <point x="756" y="907"/>
      <point x="756" y="822" type="curve" smooth="yes"/>
      <point x="756" y="725"/>
      <point x="687" y="657"/>
      <point x="579" y="657" type="curve" smooth="yes"/>
      <point x="417" y="657" type="line"/>
      <point x="417" y="406" type="line"/>
      <point x="566" y="406" type="line" smooth="yes"/>
      <point x="693" y="406"/>
      <point x="791" y="335"/>
      <point x="791" y="220" type="curve" smooth="yes"/>
      <point x="791" y="100"/>
      <point x="704" y="19"/>
      <point x="578" y="19" type="curve" smooth="yes"/>
      <point x="461" y="19"/>
      <point x="366" y="70"/>
      <point x="349" y="205" type="curve"/>
      <point x="23" y="205" type="line"/>
      <point x="23" y="-112"/>
      <point x="295" y="-249"/>
    </contour>
  </outline>
</glyph>
<glyph name="three.tf" format="2">
  <advance width="1200"/>
  <outline>
    <contour>
      <point x="610" y="-32" type="curve" smooth="yes"/>
      <point x="945" y="-32"/>
      <point x="1179" y="138"/>
      <point x="1179" y="383" type="curve" smooth="yes"/>
      <point x="1179" y="533"/>
      <point x="1085" y="641"/>
      <point x="933" y="703" type="curve"/>
      <point x="1071" y="749"/>
      <point x="1141" y="857"/>
      <point x="1141" y="989" type="curve" smooth="yes"/>
      <point x="1141" y="1218"/>
      <point x="908" y="1372"/>
      <point x="594" y="1372" type="curve" smooth="yes"/>
      <point x="280" y="1372"/>
      <point x="61" y="1235"/>
      <point x="37" y="936" type="curve"/>
      <point x="380" y="936" type="line"/>
      <point x="393" y="1039"/>
      <point x="495" y="1083"/>
      <point x="606" y="1083" type="curve" smooth="yes"/>
      <point x="740" y="1083"/>
      <point x="797" y="1026"/>
      <point x="797" y="947" type="curve" smooth="yes"/>
      <point x="797" y="860"/>
      <point x="730" y="802"/>
      <point x="624" y="802" type="curve" smooth="yes"/>
      <point x="424" y="802" type="line"/>
      <point x="424" y="551" type="line"/>
      <point x="629" y="551" type="line" smooth="yes"/>
      <point x="759" y="551"/>
      <point x="834" y="509"/>
      <point x="834" y="415" type="curve" smooth="yes"/>
      <point x="834" y="324"/>
      <point x="749" y="259"/>
      <point x="610" y="259" type="curve" smooth="yes"/>
      <point x="461" y="259"/>
      <point x="376" y="335"/>
      <point x="364" y="433" type="curve"/>
      <point x="22" y="433" type="line"/>
      <point x="22" y="126"/>
      <point x="315" y="-32"/>
    </contour>
  </outline>
</glyph>
<glyph name="two.prop" format="2">
  <advance width="1233.05"/>
  <outline>
    <contour>
      <point x="112" y="0" type="line"/>
      <point x="1137" y="0" type="line"/>
      <point x="1137" y="292" type="line"/>
      <point x="432" y="292" type="line"/>
      <point x="432" y="321" type="line" smooth="yes"/>
      <point x="432" y="363"/>
      <point x="469" y="384"/>
      <point x="552" y="408" type="curve" smooth="yes"/>
      <point x="749" y="460" type="line" smooth="yes"/>
      <point x="1017" y="526"/>
      <point x="1119" y="641"/>
      <point x="1119" y="846" type="curve" smooth="yes"/>
      <point x="1119" y="1075"/>
      <point x="930" y="1235"/>
      <point x="639" y="1235" type="curve" smooth="yes"/>
      <point x="353" y="1235"/>
      <point x="131" y="1113"/>
      <point x="134" y="825" type="curve"/>
      <point x="488" y="825" type="line"/>
      <point x="498" y="918"/>
      <point x="565" y="958"/>
      <point x="658" y="958" type="curve" smooth="yes"/>
      <point x="746" y="958"/>
      <point x="801" y="907"/>
      <point x="801" y="841" type="curve" smooth="yes"/>
      <point x="801" y="764"/>
      <point x="762" y="711"/>
      <point x="609" y="670" type="curve" smooth="yes"/>
      <point x="436" y="626" type="line" smooth="yes"/>
      <point x="214" y="568"/>
      <point x="112" y="464"/>
      <point x="112" y="225" type="curve" smooth="yes"/>
    </contour>
  </outline>
</glyph>
<glyph name="two.tf" format="2">
  <advance width="1200"/>
  <outline>
    <contour>
      <point x="60" y="0" type="line"/>
      <point x="1136" y="0" type="line"/>
      <point x="1136" y="292" type="line"/>
      <point x="380" y="292" type="line"/>
      <point x="380" y="307" type="line" smooth="yes"/>
      <point x="380" y="351"/>
      <point x="405" y="376"/>
      <point x="484" y="403" type="curve" smooth="yes"/>
      <point x="768" y="510" type="line" smooth="yes"/>
      <point x="1039" y="608"/>
      <point x="1140" y="743"/>
      <point x="1140" y="949" type="curve" smooth="yes"/>
      <point x="1140" y="1208"/>
      <point x="907" y="1372"/>
      <point x="626" y="1372" type="curve" smooth="yes"/>
      <point x="333" y="1372"/>
      <point x="81" y="1234"/>
      <point x="82" y="918" type="curve"/>
      <point x="438" y="918" type="line"/>
      <point x="446" y="1031"/>
      <point x="529" y="1095"/>
      <point x="632" y="1095" type="curve" smooth="yes"/>
      <point x="743" y="1095"/>
      <point x="796" y="1030"/>
      <point x="796" y="959" type="curve" smooth="yes"/>
      <point x="796" y="882"/>
      <point x="755" y="829"/>
      <point x="651" y="789" type="curve" smooth="yes"/>
      <point x="366" y="683" type="line" smooth="yes"/>
      <point x="143" y="596"/>
      <point x="60" y="478"/>
      <point x="60" y="260" type="curve" smooth="yes"/>
    </contour>
  </outline>
</glyph>
<glyph name="yen.tf" format="2">
  <advance width="1200"/>
  <outline>
    <contour>
      <point x="428" y="0" type="line"/>
      <point x="746" y="0" type="line"/>
      <point x="746" y="557" type="line"/>
      <point x="1196" y="1342" type="line"/>
      <point x="817" y="1342" type="line"/>
      <point x="566" y="839" type="line"/>
      <point x="614" y="839" type="line"/>
      <point x="383" y="1342" type="line"/>
      <point x="4" y="1342" type="line"/>
      <point x="428" y="557" type="line"/>
    </contour>
    <contour>
      <point x="231" y="136" type="line"/>
      <point x="950" y="136" type="line"/>
      <point x="950" y="304" type="line"/>
      <point x="231" y="304" type="line"/>
    </contour>
    <contour>
      <point x="231" y="367" type="line"/>
      <point x="950" y="367" type="line"/>
      <point x="950" y="535" type="line"/>
      <point x="231" y="535" type="line"/>
    </contour>
  </outline>
</glyph>
<glyph name="zero.prop" format="2">
  <advance width="1220.9"/>
  <outline>
    <contour>
      <point x="612" y="1235" type="curve" smooth="yes"/>
      <point x="307" y="1235"/>
      <point x="86" y="996"/>
      <point x="86" y="602" type="curve" smooth="yes"/>
      <point x="86" y="205"/>
      <point x="307" y="-32"/>
      <point x="612" y="-32" type="curve" smooth="yes"/>
      <point x="917" y="-32"/>
      <point x="1132" y="205"/>
      <point x="1132" y="602" type="curve" smooth="yes"/>
      <point x="1132" y="996"/>
      <point x="917" y="1235"/>
    </contour>
    <contour>
      <point x="612" y="946" type="curve" smooth="yes"/>
      <point x="745" y="946"/>
      <point x="818" y="845"/>
      <point x="818" y="602" type="curve" smooth="yes"/>
      <point x="818" y="358"/>
      <point x="745" y="260"/>
      <point x="612" y="260" type="curve" smooth="yes"/>
      <point x="479" y="260"/>
      <point x="405" y="358"/>
      <point x="405" y="602" type="curve" smooth="yes"/>
      <point x="405" y="845"/>
      <point x="479" y="946"/>
    </contour>
  </outline>
</glyph>
<glyph name="zero.tf" format="2">
  <advance width="1200"/>
  <outline>
    <contour>
      <point x="600" y="-32" type="curve" smooth="yes"/>
      <point x="939" y="-32"/>
      <point x="1186" y="192"/>
      <point x="1186" y="669" type="curve" smooth="yes"/>
      <point x="1186" y="1150"/>
      <point x="939" y="1372"/>
      <point x="600" y="1372" type="curve" smooth="yes"/>
      <point x="259" y="1372"/>
      <point x="14" y="1150"/>
      <point x="14" y="669" type="curve" smooth="yes"/>
      <point x="14" y="192"/>
      <point x="259" y="-32"/>
    </contour>
    <contour>
      <point x="600" y="259" type="curve" smooth="yes"/>
      <point x="443" y="259"/>
      <point x="340" y="398"/>
      <point x="340" y="669" type="curve" smooth="yes"/>
      <point x="340" y="940"/>
      <point x="443" y="1083"/>
      <point x="600" y="1083" type="curve" smooth="yes"/>
      <point x="759" y="1083"/>
      <point x="860" y="940"/>
      <point x="860" y="669" type="curve" smooth="yes"/>
      <point x="860" y="398"/>
      <point x="759" y="259"/>
    </contour>
  </outline>
</glyph>
